<svg width="1440" height="296" viewBox="0 0 1440 296" fill="none" xmlns="http://www.w3.org/2000/svg">
<path d="M904.615 73.847L923.077 73.847L923.077 55.3858L904.615 55.3858L904.615 73.847Z" fill="#BFE7FF"/>
<path d="M904.615 110.77L923.077 110.77L923.077 92.3078L904.615 92.3078L904.615 110.77Z" fill="#E1F5FF"/>
<path d="M904.615 55.3856L923.077 55.3856L923.077 36.9243L904.615 36.9243L904.615 55.3856Z" fill="#BFE7FF"/>
<path d="M904.615 166.155L923.077 166.155L923.077 147.693L904.615 147.693L904.615 166.155Z" fill="white"/>
<path d="M904.615 184.616L923.077 184.616L923.077 166.155L904.615 166.155L904.615 184.616Z" fill="white"/>
<path d="M904.615 147.694L923.077 147.694L923.077 129.232L904.615 129.232L904.615 147.694Z" fill="#E1F5FF"/>
<path d="M904.615 129.231L923.077 129.231L923.077 110.77L904.615 110.77L904.615 129.231Z" fill="#E1F5FF"/>
<path d="M886.154 147.694L904.615 147.694L904.615 129.232L886.154 129.232L886.154 147.694Z" fill="#E1F5FF"/>
<path d="M886.154 129.231L904.615 129.231L904.615 110.77L886.154 110.77L886.154 129.231Z" fill="#E1F5FF"/>
<path d="M886.154 110.77L904.615 110.77L904.615 92.3078L886.154 92.3078L886.154 110.77Z" fill="#E1F5FF"/>
<path d="M886.154 166.155L904.615 166.155L904.615 147.693L886.154 147.693L886.154 166.155Z" fill="#E1F5FF"/>
<path d="M886.154 221.539L904.615 221.539L904.615 203.078L886.154 203.078L886.154 221.539Z" fill="white"/>
<path d="M886.154 184.616L904.615 184.616L904.615 166.155L886.154 166.155L886.154 184.616Z" fill="white"/>
<path d="M886.154 203.078L904.615 203.078L904.615 184.617L886.154 184.617L886.154 203.078Z" fill="white"/>
<path d="M886.154 92.3079L904.615 92.3079L904.615 73.8467L886.154 73.8467L886.154 92.3079Z" fill="#BFE7FF"/>
<path d="M886.154 240.001L904.615 240.001L904.615 221.54L886.154 221.54L886.154 240.001Z" fill="white"/>
<path d="M904.615 36.9236L923.077 36.9236L923.077 18.4625L904.615 18.4625L904.615 36.9236Z" fill="#A0D5EF"/>
<path d="M886.154 73.847L904.615 73.847L904.615 55.3858L886.154 55.3858L886.154 73.847Z" fill="#BFE7FF"/>
<path d="M886.154 55.3856L904.615 55.3856L904.615 36.9243L886.154 36.9243L886.154 55.3856Z" fill="#BFE7FF"/>
<path d="M886.154 36.9236L904.615 36.9236L904.615 18.4625L886.154 18.4625L886.154 36.9236Z" fill="#A0D5EF"/>
<path d="M886.154 18.4622L904.615 18.4622L904.615 0.000183109L886.154 0.000181495L886.154 18.4622Z" fill="#A0D5EF"/>
<path d="M923.078 73.847L941.539 73.847L941.539 55.3858L923.078 55.3858L923.078 73.847Z" fill="#BFE7FF"/>
<path d="M923.078 92.3079L941.539 92.3079L941.539 73.8467L923.078 73.8467L923.078 92.3079Z" fill="#E1F5FF"/>
<path d="M923.078 36.9236L941.539 36.9236L941.539 18.4625L923.078 18.4625L923.078 36.9236Z" fill="#A0D5EF"/>
<path d="M923.078 55.3856L941.539 55.3856L941.539 36.9243L923.078 36.9243L923.078 55.3856Z" fill="#BFE7FF"/>
<path d="M923.078 110.77L941.539 110.77L941.539 92.3078L923.078 92.3078L923.078 110.77Z" fill="#E1F5FF"/>
<path d="M941.539 36.9236L960 36.9236L960 18.4625L941.539 18.4625L941.539 36.9236Z" fill="#A0D5EF"/>
<path d="M923.078 129.231L941.539 129.231L941.539 110.77L923.078 110.77L923.078 129.231Z" fill="#E1F5FF"/>
<path d="M923.078 166.155L941.539 166.155L941.539 147.693L923.078 147.693L923.078 166.155Z" fill="white"/>
<path d="M923.078 147.694L941.539 147.694L941.539 129.232L923.078 129.232L923.078 147.694Z" fill="white"/>
<path d="M960.001 36.9236L978.462 36.9236L978.462 18.4625L960.001 18.4625L960.001 36.9236Z" fill="#A0D5EF"/>
<path d="M1070.77 36.9236L1089.23 36.9236L1089.23 18.4625L1070.77 18.4625L1070.77 36.9236Z" fill="#BFE7FF"/>
<path d="M1052.31 36.9236L1070.77 36.9236L1070.77 18.4625L1052.31 18.4625L1052.31 36.9236Z" fill="#BFE7FF"/>
<path d="M1107.69 36.9236L1126.15 36.9236L1126.15 18.4625L1107.69 18.4625L1107.69 36.9236Z" fill="#BFE7FF"/>
<path d="M1089.23 36.9236L1107.69 36.9236L1107.69 18.4625L1089.23 18.4625L1089.23 36.9236Z" fill="#BFE7FF"/>
<path d="M996.923 36.9236L1015.38 36.9236L1015.38 18.4625L996.923 18.4625L996.923 36.9236Z" fill="#A0D5EF"/>
<path d="M978.462 36.9236L996.923 36.9236L996.923 18.4625L978.462 18.4625L978.462 36.9236Z" fill="#A0D5EF"/>
<path d="M1015.39 36.9236L1033.85 36.9236L1033.85 18.4625L1015.39 18.4625L1015.39 36.9236Z" fill="#A0D5EF"/>
<path d="M1033.85 36.9236L1052.31 36.9236L1052.31 18.4625L1033.85 18.4625L1033.85 36.9236Z" fill="#BFE7FF"/>
<path d="M1126.15 36.9236L1144.62 36.9236L1144.62 18.4625L1126.15 18.4625L1126.15 36.9236Z" fill="#BFE7FF"/>
<path d="M1384.62 36.9236L1403.08 36.9236L1403.08 18.4625L1384.62 18.4625L1384.62 36.9236Z" fill="#E1F5FF"/>
<path d="M1144.62 36.9236L1163.08 36.9236L1163.08 18.4625L1144.62 18.4625L1144.62 36.9236Z" fill="#BFE7FF"/>
<path d="M1273.85 36.9236L1292.31 36.9236L1292.31 18.4625L1273.85 18.4625L1273.85 36.9236Z" fill="#E1F5FF"/>
<path d="M1310.77 36.9236L1329.23 36.9236L1329.23 18.4625L1310.77 18.4625L1310.77 36.9236Z" fill="#E1F5FF"/>
<path d="M1236.92 36.9236L1255.39 36.9236L1255.39 18.4625L1236.92 18.4625L1236.92 36.9236Z" fill="#BFE7FF"/>
<path d="M1292.31 36.9236L1310.77 36.9236L1310.77 18.4625L1292.31 18.4625L1292.31 36.9236Z" fill="#E1F5FF"/>
<path d="M1255.38 36.9236L1273.85 36.9236L1273.85 18.4625L1255.38 18.4625L1255.38 36.9236Z" fill="#BFE7FF"/>
<path d="M1181.54 36.9236L1200 36.9236L1200 18.4625L1181.54 18.4625L1181.54 36.9236Z" fill="#BFE7FF"/>
<path d="M1200 36.9236L1218.46 36.9236L1218.46 18.4625L1200 18.4625L1200 36.9236Z" fill="#BFE7FF"/>
<path d="M1218.46 36.9236L1236.92 36.9236L1236.92 18.4625L1218.46 18.4625L1218.46 36.9236Z" fill="#BFE7FF"/>
<path d="M1163.08 36.9236L1181.54 36.9236L1181.54 18.4625L1163.08 18.4625L1163.08 36.9236Z" fill="#BFE7FF"/>
<path d="M1403.08 55.3856L1421.54 55.3856L1421.54 36.9243L1403.08 36.9243L1403.08 55.3856Z" fill="#E1F5FF"/>
<path d="M1366.15 36.9236L1384.62 36.9236L1384.62 18.4625L1366.15 18.4625L1366.15 36.9236Z" fill="#E1F5FF"/>
<path d="M1403.08 36.9236L1421.54 36.9236L1421.54 18.4625L1403.08 18.4625L1403.08 36.9236Z" fill="#E1F5FF"/>
<path d="M1347.69 36.9236L1366.15 36.9236L1366.15 18.4625L1347.69 18.4625L1347.69 36.9236Z" fill="#E1F5FF"/>
<path d="M1329.23 36.9236L1347.69 36.9236L1347.69 18.4625L1329.23 18.4625L1329.23 36.9236Z" fill="#E1F5FF"/>
<path d="M1273.85 18.4622L1292.31 18.4622L1292.31 0.000183109L1273.85 0.000181495L1273.85 18.4622Z" fill="#BFE7FF"/>
<path d="M1366.15 18.4622L1384.62 18.4622L1384.62 0.000183109L1366.15 0.000181495L1366.15 18.4622Z" fill="#E1F5FF"/>
<path d="M1384.62 18.4622L1403.08 18.4622L1403.08 0.000183109L1384.62 0.000181495L1384.62 18.4622Z" fill="#E1F5FF"/>
<path d="M1421.54 36.9236L1440 36.9236L1440 18.4625L1421.54 18.4625L1421.54 36.9236Z" fill="#E1F5FF"/>
<path d="M1347.69 18.4622L1366.15 18.4622L1366.15 0.000183109L1347.69 0.000181495L1347.69 18.4622Z" fill="#E1F5FF"/>
<path d="M1292.31 18.4622L1310.77 18.4622L1310.77 0.000183109L1292.31 0.000181495L1292.31 18.4622Z" fill="#BFE7FF"/>
<path d="M1310.77 18.4622L1329.23 18.4622L1329.23 0.000183109L1310.77 0.000181495L1310.77 18.4622Z" fill="#E1F5FF"/>
<path d="M1329.23 18.4622L1347.69 18.4622L1347.69 0.000183109L1329.23 0.000181495L1329.23 18.4622Z" fill="#E1F5FF"/>
<path d="M1403.08 18.4622L1421.54 18.4622L1421.54 0.000183109L1403.08 0.000181495L1403.08 18.4622Z" fill="#E1F5FF"/>
<path d="M904.615 18.4622L923.076 18.4622L923.076 0.000183109L904.615 0.000181495L904.615 18.4622Z" fill="#A0D5EF"/>
<path d="M1421.54 18.4622L1440 18.4622L1440 0.000183109L1421.54 0.000181495L1421.54 18.4622Z" fill="#E1F5FF"/>
<path d="M1070.77 18.4622L1089.23 18.4622L1089.23 0.000183109L1070.77 0.000181495L1070.77 18.4622Z" fill="#A0D5EF"/>
<path d="M1033.85 18.4622L1052.31 18.4622L1052.31 0.000183109L1033.85 0.000181495L1033.85 18.4622Z" fill="#A0D5EF"/>
<path d="M996.923 18.4622L1015.38 18.4622L1015.38 0.000183109L996.923 0.000181495L996.923 18.4622Z" fill="#A0D5EF"/>
<path d="M1052.31 18.4622L1070.77 18.4622L1070.77 0.000183109L1052.31 0.000181495L1052.31 18.4622Z" fill="#A0D5EF"/>
<path d="M1015.39 18.4622L1033.85 18.4622L1033.85 0.000183109L1015.39 0.000181495L1015.39 18.4622Z" fill="#A0D5EF"/>
<path d="M923.078 18.4622L941.539 18.4622L941.539 0.000183109L923.078 0.000181495L923.078 18.4622Z" fill="#A0D5EF"/>
<path d="M941.539 18.4622L960 18.4622L960 0.000183109L941.539 0.000181495L941.539 18.4622Z" fill="#A0D5EF"/>
<path d="M960.001 18.4622L978.462 18.4622L978.462 0.000183109L960.001 0.000181495L960.001 18.4622Z" fill="#A0D5EF"/>
<path d="M978.462 18.4622L996.923 18.4622L996.923 0.000183109L978.462 0.000181495L978.462 18.4622Z" fill="#A0D5EF"/>
<path d="M1181.54 18.4622L1200 18.4622L1200 0.000183109L1181.54 0.000181495L1181.54 18.4622Z" fill="#BFE7FF"/>
<path d="M1218.46 18.4622L1236.92 18.4622L1236.92 0.000183109L1218.46 0.000181495L1218.46 18.4622Z" fill="#BFE7FF"/>
<path d="M1236.92 18.4622L1255.39 18.4622L1255.39 0.000183109L1236.92 0.000181495L1236.92 18.4622Z" fill="#BFE7FF"/>
<path d="M1255.38 18.4622L1273.85 18.4622L1273.85 0.000183109L1255.38 0.000181495L1255.38 18.4622Z" fill="#BFE7FF"/>
<path d="M1144.62 18.4622L1163.08 18.4622L1163.08 0.000183109L1144.62 0.000181495L1144.62 18.4622Z" fill="#BFE7FF"/>
<path d="M1126.15 18.4622L1144.62 18.4622L1144.62 0.000183109L1126.15 0.000181495L1126.15 18.4622Z" fill="#BFE7FF"/>
<path d="M1107.69 18.4622L1126.15 18.4622L1126.15 0.000183109L1107.69 0.000181495L1107.69 18.4622Z" fill="#A0D5EF"/>
<path d="M1089.23 18.4622L1107.69 18.4622L1107.69 0.000183109L1089.23 0.000181495L1089.23 18.4622Z" fill="#A0D5EF"/>
<path d="M1163.08 18.4622L1181.54 18.4622L1181.54 0.000183109L1163.08 0.000181495L1163.08 18.4622Z" fill="#BFE7FF"/>
<path d="M1200 18.4622L1218.46 18.4622L1218.46 0.000183109L1200 0.000181495L1200 18.4622Z" fill="#BFE7FF"/>
<path d="M849.231 129.231L867.692 129.231L867.692 110.77L849.231 110.77L849.231 129.231Z" fill="#BFE7FF"/>
<path d="M849.231 36.9236L867.692 36.9236L867.692 18.4625L849.231 18.4625L849.231 36.9236Z" fill="#A0D5EF"/>
<path d="M849.231 18.4622L867.692 18.4622L867.692 0.000183109L849.231 0.000181495L849.231 18.4622Z" fill="#A0D5EF"/>
<path d="M849.231 55.3856L867.692 55.3856L867.692 36.9243L849.231 36.9243L849.231 55.3856Z" fill="#BFE7FF"/>
<path d="M849.231 110.77L867.692 110.77L867.692 92.3078L849.231 92.3078L849.231 110.77Z" fill="#BFE7FF"/>
<path d="M849.231 73.847L867.692 73.847L867.692 55.3858L849.231 55.3858L849.231 73.847Z" fill="#BFE7FF"/>
<path d="M849.231 92.3079L867.692 92.3079L867.692 73.8467L849.231 73.8467L849.231 92.3079Z" fill="#BFE7FF"/>
<path d="M849.231 147.694L867.692 147.694L867.692 129.232L849.231 129.232L849.231 147.694Z" fill="#E1F5FF"/>
<path d="M849.231 184.616L867.692 184.616L867.692 166.155L849.231 166.155L849.231 184.616Z" fill="#E1F5FF"/>
<path d="M849.231 203.078L867.692 203.078L867.692 184.617L849.231 184.617L849.231 203.078Z" fill="#E1F5FF"/>
<path d="M849.231 166.155L867.692 166.155L867.692 147.693L849.231 147.693L849.231 166.155Z" fill="#E1F5FF"/>
<path d="M849.231 221.539L867.692 221.539L867.692 203.078L849.231 203.078L849.231 221.539Z" fill="#E1F5FF"/>
<path d="M849.231 276.924L867.692 276.924L867.692 258.462L849.231 258.462L849.231 276.924Z" fill="white"/>
<path d="M849.231 240.001L867.692 240.001L867.692 221.54L849.231 221.54L849.231 240.001Z" fill="white"/>
<path d="M849.231 258.462L867.692 258.462L867.692 240.001L849.231 240.001L849.231 258.462Z" fill="white"/>
<path d="M867.693 203.078L886.154 203.078L886.154 184.617L867.693 184.617L867.693 203.078Z" fill="white"/>
<path d="M867.693 221.539L886.154 221.539L886.154 203.078L867.693 203.078L867.693 221.539Z" fill="white"/>
<path d="M867.693 240.001L886.154 240.001L886.154 221.54L867.693 221.54L867.693 240.001Z" fill="white"/>
<path d="M867.693 258.462L886.154 258.462L886.154 240.001L867.693 240.001L867.693 258.462Z" fill="white"/>
<path d="M867.693 184.616L886.154 184.616L886.154 166.155L867.693 166.155L867.693 184.616Z" fill="#E1F5FF"/>
<path d="M867.693 129.231L886.154 129.231L886.154 110.77L867.693 110.77L867.693 129.231Z" fill="#BFE7FF"/>
<path d="M867.693 166.155L886.154 166.155L886.154 147.693L867.693 147.693L867.693 166.155Z" fill="#E1F5FF"/>
<path d="M867.693 73.847L886.154 73.847L886.154 55.3858L867.693 55.3858L867.693 73.847Z" fill="#BFE7FF"/>
<path d="M867.693 55.3856L886.154 55.3856L886.154 36.9243L867.693 36.9243L867.693 55.3856Z" fill="#BFE7FF"/>
<path d="M867.693 18.4622L886.154 18.4622L886.154 0.000183109L867.693 0.000181495L867.693 18.4622Z" fill="#A0D5EF"/>
<path d="M867.693 36.9236L886.154 36.9236L886.154 18.4625L867.693 18.4625L867.693 36.9236Z" fill="#A0D5EF"/>
<path d="M867.693 147.694L886.154 147.694L886.154 129.232L867.693 129.232L867.693 147.694Z" fill="#E1F5FF"/>
<path d="M867.693 110.77L886.154 110.77L886.154 92.3078L867.693 92.3078L867.693 110.77Z" fill="#BFE7FF"/>
<path d="M867.693 92.3079L886.154 92.3079L886.154 73.8467L867.693 73.8467L867.693 92.3079Z" fill="#BFE7FF"/>
<path d="M904.615 92.3079L923.077 92.3079L923.077 73.8467L904.615 73.8467L904.615 92.3079Z" fill="#E1F5FF"/>
<path d="M1033.85 203.078L1052.31 203.078L1052.31 184.617L1033.85 184.617L1033.85 203.078Z" fill="white"/>
<path d="M1033.85 184.616L1052.31 184.616L1052.31 166.155L1033.85 166.155L1033.85 184.616Z" fill="white"/>
<path d="M1107.69 147.694L1126.15 147.694L1126.15 129.232L1107.69 129.232L1107.69 147.694Z" fill="#E1F5FF"/>
<path d="M1181.54 147.694L1200 147.694L1200 129.232L1181.54 129.232L1181.54 147.694Z" fill="white"/>
<path d="M1126.15 147.694L1144.62 147.694L1144.62 129.232L1126.15 129.232L1126.15 147.694Z" fill="#E1F5FF"/>
<path d="M1163.08 147.694L1181.54 147.694L1181.54 129.232L1163.08 129.232L1163.08 147.694Z" fill="white"/>
<path d="M1052.31 147.694L1070.77 147.694L1070.77 129.232L1052.31 129.232L1052.31 147.694Z" fill="#E1F5FF"/>
<path d="M1033.85 166.155L1052.31 166.155L1052.31 147.693L1033.85 147.693L1033.85 166.155Z" fill="#E1F5FF"/>
<path d="M1089.23 147.694L1107.69 147.694L1107.69 129.232L1089.23 129.232L1089.23 147.694Z" fill="#E1F5FF"/>
<path d="M1033.85 147.694L1052.31 147.694L1052.31 129.232L1033.85 129.232L1033.85 147.694Z" fill="#E1F5FF"/>
<path d="M1070.77 147.694L1089.23 147.694L1089.23 129.232L1070.77 129.232L1070.77 147.694Z" fill="#E1F5FF"/>
<path d="M1144.62 147.694L1163.08 147.694L1163.08 129.232L1144.62 129.232L1144.62 147.694Z" fill="white"/>
<path d="M1329.23 110.77L1347.69 110.77L1347.69 92.3078L1329.23 92.3078L1329.23 110.77Z" fill="white"/>
<path d="M1292.31 147.694L1310.77 147.694L1310.77 129.232L1292.31 129.232L1292.31 147.694Z" fill="white"/>
<path d="M1255.38 147.694L1273.85 147.694L1273.85 129.232L1255.38 129.232L1255.38 147.694Z" fill="white"/>
<path d="M1273.85 147.694L1292.31 147.694L1292.31 129.232L1273.85 129.232L1273.85 147.694Z" fill="white"/>
<path d="M1236.92 147.694L1255.39 147.694L1255.39 129.232L1236.92 129.232L1236.92 147.694Z" fill="white"/>
<path d="M1329.23 129.231L1347.69 129.231L1347.69 110.77L1329.23 110.77L1329.23 129.231Z" fill="white"/>
<path d="M1310.77 129.231L1329.23 129.231L1329.23 110.77L1310.77 110.77L1310.77 129.231Z" fill="white"/>
<path d="M1292.31 129.231L1310.77 129.231L1310.77 110.77L1292.31 110.77L1292.31 129.231Z" fill="white"/>
<path d="M1310.77 147.694L1329.23 147.694L1329.23 129.232L1310.77 129.232L1310.77 147.694Z" fill="white"/>
<path d="M1255.38 129.231L1273.85 129.231L1273.85 110.77L1255.38 110.77L1255.38 129.231Z" fill="#E1F5FF"/>
<path d="M1218.46 129.231L1236.92 129.231L1236.92 110.77L1218.46 110.77L1218.46 129.231Z" fill="white"/>
<path d="M1273.85 129.231L1292.31 129.231L1292.31 110.77L1273.85 110.77L1273.85 129.231Z" fill="#E1F5FF"/>
<path d="M1236.92 129.231L1255.39 129.231L1255.39 110.77L1236.92 110.77L1236.92 129.231Z" fill="#E1F5FF"/>
<path d="M1200 129.231L1218.46 129.231L1218.46 110.77L1200 110.77L1200 129.231Z" fill="white"/>
<path d="M1015.39 184.616L1033.85 184.616L1033.85 166.155L1015.39 166.155L1015.39 184.616Z" fill="white"/>
<path d="M1015.39 166.155L1033.85 166.155L1033.85 147.693L1015.39 147.693L1015.39 166.155Z" fill="#E1F5FF"/>
<path d="M1181.54 129.231L1200 129.231L1200 110.77L1181.54 110.77L1181.54 129.231Z" fill="white"/>
<path d="M1015.39 147.694L1033.85 147.694L1033.85 129.232L1015.39 129.232L1015.39 147.694Z" fill="#E1F5FF"/>
<path d="M1126.15 129.231L1144.62 129.231L1144.62 110.77L1126.15 110.77L1126.15 129.231Z" fill="#E1F5FF"/>
<path d="M1144.62 129.231L1163.08 129.231L1163.08 110.77L1144.62 110.77L1144.62 129.231Z" fill="#E1F5FF"/>
<path d="M1107.69 129.231L1126.15 129.231L1126.15 110.77L1107.69 110.77L1107.69 129.231Z" fill="#E1F5FF"/>
<path d="M1163.08 129.231L1181.54 129.231L1181.54 110.77L1163.08 110.77L1163.08 129.231Z" fill="white"/>
<path d="M1052.31 129.231L1070.77 129.231L1070.77 110.77L1052.31 110.77L1052.31 129.231Z" fill="#E1F5FF"/>
<path d="M1015.39 129.231L1033.85 129.231L1033.85 110.77L1015.39 110.77L1015.39 129.231Z" fill="#E1F5FF"/>
<path d="M1033.85 129.231L1052.31 129.231L1052.31 110.77L1033.85 110.77L1033.85 129.231Z" fill="#E1F5FF"/>
<path d="M1070.77 129.231L1089.23 129.231L1089.23 110.77L1070.77 110.77L1070.77 129.231Z" fill="#E1F5FF"/>
<path d="M1089.23 129.231L1107.69 129.231L1107.69 110.77L1089.23 110.77L1089.23 129.231Z" fill="#E1F5FF"/>
<path d="M1089.23 203.078L1107.69 203.078L1107.69 184.617L1089.23 184.617L1089.23 203.078Z" fill="white"/>
<path d="M1107.69 203.078L1126.15 203.078L1126.15 184.617L1107.69 184.617L1107.69 203.078Z" fill="white"/>
<path d="M1107.69 166.155L1126.15 166.155L1126.15 147.693L1107.69 147.693L1107.69 166.155Z" fill="#E1F5FF"/>
<path d="M1070.77 166.155L1089.23 166.155L1089.23 147.693L1070.77 147.693L1070.77 166.155Z" fill="#E1F5FF"/>
<path d="M1126.15 166.155L1144.62 166.155L1144.62 147.693L1126.15 147.693L1126.15 166.155Z" fill="white"/>
<path d="M1052.31 203.078L1070.77 203.078L1070.77 184.617L1052.31 184.617L1052.31 203.078Z" fill="white"/>
<path d="M1144.62 166.155L1163.08 166.155L1163.08 147.693L1144.62 147.693L1144.62 166.155Z" fill="white"/>
<path d="M1052.31 184.616L1070.77 184.616L1070.77 166.155L1052.31 166.155L1052.31 184.616Z" fill="white"/>
<path d="M1052.31 166.155L1070.77 166.155L1070.77 147.693L1052.31 147.693L1052.31 166.155Z" fill="#E1F5FF"/>
<path d="M1089.23 166.155L1107.69 166.155L1107.69 147.693L1089.23 147.693L1089.23 166.155Z" fill="#E1F5FF"/>
<path d="M1163.08 166.155L1181.54 166.155L1181.54 147.693L1163.08 147.693L1163.08 166.155Z" fill="white"/>
<path d="M1181.54 166.155L1200 166.155L1200 147.693L1181.54 147.693L1181.54 166.155Z" fill="white"/>
<path d="M1070.77 203.078L1089.23 203.078L1089.23 184.617L1070.77 184.617L1070.77 203.078Z" fill="white"/>
<path d="M1070.77 184.616L1089.23 184.616L1089.23 166.155L1070.77 166.155L1070.77 184.616Z" fill="white"/>
<path d="M1144.62 184.616L1163.08 184.616L1163.08 166.155L1144.62 166.155L1144.62 184.616Z" fill="white"/>
<path d="M1107.69 184.616L1126.15 184.616L1126.15 166.155L1107.69 166.155L1107.69 184.616Z" fill="white"/>
<path d="M1126.15 184.616L1144.62 184.616L1144.62 166.155L1126.15 166.155L1126.15 184.616Z" fill="white"/>
<path d="M1089.23 184.616L1107.69 184.616L1107.69 166.155L1089.23 166.155L1089.23 184.616Z" fill="white"/>
<path d="M1126.15 73.847L1144.62 73.847L1144.62 55.3858L1126.15 55.3858L1126.15 73.847Z" fill="#E1F5FF"/>
<path d="M1033.85 73.847L1052.31 73.847L1052.31 55.3858L1033.85 55.3858L1033.85 73.847Z" fill="#BFE7FF"/>
<path d="M1052.31 73.847L1070.77 73.847L1070.77 55.3858L1052.31 55.3858L1052.31 73.847Z" fill="#BFE7FF"/>
<path d="M960.001 92.3079L978.462 92.3079L978.462 73.8467L960.001 73.8467L960.001 92.3079Z" fill="#E1F5FF"/>
<path d="M1107.69 73.847L1126.15 73.847L1126.15 55.3858L1107.69 55.3858L1107.69 73.847Z" fill="#E1F5FF"/>
<path d="M1070.77 73.847L1089.23 73.847L1089.23 55.3858L1070.77 55.3858L1070.77 73.847Z" fill="#BFE7FF"/>
<path d="M960.001 73.847L978.462 73.847L978.462 55.3858L960.001 55.3858L960.001 73.847Z" fill="#BFE7FF"/>
<path d="M978.462 73.847L996.923 73.847L996.923 55.3858L978.462 55.3858L978.462 73.847Z" fill="#BFE7FF"/>
<path d="M996.923 73.847L1015.38 73.847L1015.38 55.3858L996.923 55.3858L996.923 73.847Z" fill="#BFE7FF"/>
<path d="M1015.39 73.847L1033.85 73.847L1033.85 55.3858L1015.39 55.3858L1015.39 73.847Z" fill="#BFE7FF"/>
<path d="M1089.23 73.847L1107.69 73.847L1107.69 55.3858L1089.23 55.3858L1089.23 73.847Z" fill="#BFE7FF"/>
<path d="M1255.38 73.847L1273.85 73.847L1273.85 55.3858L1255.38 55.3858L1255.38 73.847Z" fill="#E1F5FF"/>
<path d="M1273.85 73.847L1292.31 73.847L1292.31 55.3858L1273.85 55.3858L1273.85 73.847Z" fill="#E1F5FF"/>
<path d="M1292.31 73.847L1310.77 73.847L1310.77 55.3858L1292.31 55.3858L1292.31 73.847Z" fill="#E1F5FF"/>
<path d="M1236.92 73.847L1255.39 73.847L1255.39 55.3858L1236.92 55.3858L1236.92 73.847Z" fill="#E1F5FF"/>
<path d="M1144.62 73.847L1163.08 73.847L1163.08 55.3858L1144.62 55.3858L1144.62 73.847Z" fill="#E1F5FF"/>
<path d="M1181.54 73.847L1200 73.847L1200 55.3858L1181.54 55.3858L1181.54 73.847Z" fill="#E1F5FF"/>
<path d="M1163.08 73.847L1181.54 73.847L1181.54 55.3858L1163.08 55.3858L1163.08 73.847Z" fill="#E1F5FF"/>
<path d="M1200 73.847L1218.46 73.847L1218.46 55.3858L1200 55.3858L1200 73.847Z" fill="#E1F5FF"/>
<path d="M1218.46 73.847L1236.92 73.847L1236.92 55.3858L1218.46 55.3858L1218.46 73.847Z" fill="#E1F5FF"/>
<path d="M960.001 147.694L978.462 147.694L978.462 129.232L960.001 129.232L960.001 147.694Z" fill="white"/>
<path d="M960.001 129.231L978.462 129.231L978.462 110.77L960.001 110.77L960.001 129.231Z" fill="#E1F5FF"/>
<path d="M960.001 110.77L978.462 110.77L978.462 92.3078L960.001 92.3078L960.001 110.77Z" fill="#E1F5FF"/>
<path d="M1310.77 73.847L1329.23 73.847L1329.23 55.3858L1310.77 55.3858L1310.77 73.847Z" fill="#E1F5FF"/>
<path d="M1292.31 55.3856L1310.77 55.3856L1310.77 36.9243L1292.31 36.9243L1292.31 55.3856Z" fill="#E1F5FF"/>
<path d="M1255.38 55.3856L1273.85 55.3856L1273.85 36.9243L1255.38 36.9243L1255.38 55.3856Z" fill="#E1F5FF"/>
<path d="M1273.85 55.3856L1292.31 55.3856L1292.31 36.9243L1273.85 36.9243L1273.85 55.3856Z" fill="#E1F5FF"/>
<path d="M1310.77 55.3856L1329.23 55.3856L1329.23 36.9243L1310.77 36.9243L1310.77 55.3856Z" fill="#E1F5FF"/>
<path d="M1236.92 55.3856L1255.39 55.3856L1255.39 36.9243L1236.92 36.9243L1236.92 55.3856Z" fill="#E1F5FF"/>
<path d="M1200 55.3856L1218.46 55.3856L1218.46 36.9243L1200 36.9243L1200 55.3856Z" fill="#E1F5FF"/>
<path d="M1329.23 55.3856L1347.69 55.3856L1347.69 36.9243L1329.23 36.9243L1329.23 55.3856Z" fill="#E1F5FF"/>
<path d="M1181.54 55.3856L1200 55.3856L1200 36.9243L1181.54 36.9243L1181.54 55.3856Z" fill="#E1F5FF"/>
<path d="M1218.46 55.3856L1236.92 55.3856L1236.92 36.9243L1218.46 36.9243L1218.46 55.3856Z" fill="#E1F5FF"/>
<path d="M1163.08 55.3856L1181.54 55.3856L1181.54 36.9243L1163.08 36.9243L1163.08 55.3856Z" fill="#E1F5FF"/>
<path d="M1366.15 55.3856L1384.62 55.3856L1384.62 36.9243L1366.15 36.9243L1366.15 55.3856Z" fill="#E1F5FF"/>
<path d="M1384.62 55.3856L1403.08 55.3856L1403.08 36.9243L1384.62 36.9243L1384.62 55.3856Z" fill="#E1F5FF"/>
<path d="M1347.69 55.3856L1366.15 55.3856L1366.15 36.9243L1347.69 36.9243L1347.69 55.3856Z" fill="#E1F5FF"/>
<path d="M941.539 110.77L960 110.77L960 92.3078L941.539 92.3078L941.539 110.77Z" fill="#E1F5FF"/>
<path d="M941.539 73.847L960 73.847L960 55.3858L941.539 55.3858L941.539 73.847Z" fill="#BFE7FF"/>
<path d="M941.539 92.3079L960 92.3079L960 73.8467L941.539 73.8467L941.539 92.3079Z" fill="#E1F5FF"/>
<path d="M941.539 55.3856L960 55.3856L960 36.9243L941.539 36.9243L941.539 55.3856Z" fill="#BFE7FF"/>
<path d="M941.539 129.231L960 129.231L960 110.77L941.539 110.77L941.539 129.231Z" fill="#E1F5FF"/>
<path d="M941.539 166.155L960 166.155L960 147.693L941.539 147.693L941.539 166.155Z" fill="white"/>
<path d="M941.539 147.694L960 147.694L960 129.232L941.539 129.232L941.539 147.694Z" fill="white"/>
<path d="M960.001 55.3856L978.462 55.3856L978.462 36.9243L960.001 36.9243L960.001 55.3856Z" fill="#BFE7FF"/>
<path d="M996.923 55.3856L1015.38 55.3856L1015.38 36.9243L996.923 36.9243L996.923 55.3856Z" fill="#BFE7FF"/>
<path d="M1107.69 55.3856L1126.15 55.3856L1126.15 36.9243L1107.69 36.9243L1107.69 55.3856Z" fill="#BFE7FF"/>
<path d="M1089.23 55.3856L1107.69 55.3856L1107.69 36.9243L1089.23 36.9243L1089.23 55.3856Z" fill="#BFE7FF"/>
<path d="M978.462 55.3856L996.923 55.3856L996.923 36.9243L978.462 36.9243L978.462 55.3856Z" fill="#BFE7FF"/>
<path d="M1070.77 55.3856L1089.23 55.3856L1089.23 36.9243L1070.77 36.9243L1070.77 55.3856Z" fill="#BFE7FF"/>
<path d="M1126.15 55.3856L1144.62 55.3856L1144.62 36.9243L1126.15 36.9243L1126.15 55.3856Z" fill="#E1F5FF"/>
<path d="M1144.62 55.3856L1163.08 55.3856L1163.08 36.9243L1144.62 36.9243L1144.62 55.3856Z" fill="#E1F5FF"/>
<path d="M1015.39 55.3856L1033.85 55.3856L1033.85 36.9243L1015.39 36.9243L1015.39 55.3856Z" fill="#BFE7FF"/>
<path d="M1033.85 55.3856L1052.31 55.3856L1052.31 36.9243L1033.85 36.9243L1033.85 55.3856Z" fill="#BFE7FF"/>
<path d="M1052.31 55.3856L1070.77 55.3856L1070.77 36.9243L1052.31 36.9243L1052.31 55.3856Z" fill="#BFE7FF"/>
<path d="M1255.38 110.77L1273.85 110.77L1273.85 92.3078L1255.38 92.3078L1255.38 110.77Z" fill="#E1F5FF"/>
<path d="M1347.69 110.77L1366.15 110.77L1366.15 92.3078L1347.69 92.3078L1347.69 110.77Z" fill="white"/>
<path d="M1347.69 92.3079L1366.15 92.3079L1366.15 73.8467L1347.69 73.8467L1347.69 92.3079Z" fill="white"/>
<path d="M1310.77 92.3079L1329.23 92.3079L1329.23 73.8467L1310.77 73.8467L1310.77 92.3079Z" fill="#E1F5FF"/>
<path d="M1273.85 92.3079L1292.31 92.3079L1292.31 73.8467L1273.85 73.8467L1273.85 92.3079Z" fill="#E1F5FF"/>
<path d="M1292.31 92.3079L1310.77 92.3079L1310.77 73.8467L1292.31 73.8467L1292.31 92.3079Z" fill="#E1F5FF"/>
<path d="M1329.23 92.3079L1347.69 92.3079L1347.69 73.8467L1329.23 73.8467L1329.23 92.3079Z" fill="white"/>
<path d="M996.923 184.616L1015.38 184.616L1015.38 166.155L996.923 166.155L996.923 184.616Z" fill="white"/>
<path d="M1070.77 110.77L1089.23 110.77L1089.23 92.3078L1070.77 92.3078L1070.77 110.77Z" fill="#E1F5FF"/>
<path d="M1126.15 110.77L1144.62 110.77L1144.62 92.3078L1126.15 92.3078L1126.15 110.77Z" fill="#E1F5FF"/>
<path d="M1107.69 110.77L1126.15 110.77L1126.15 92.3078L1107.69 92.3078L1107.69 110.77Z" fill="#E1F5FF"/>
<path d="M1052.31 110.77L1070.77 110.77L1070.77 92.3078L1052.31 92.3078L1052.31 110.77Z" fill="#E1F5FF"/>
<path d="M1089.23 110.77L1107.69 110.77L1107.69 92.3078L1089.23 92.3078L1089.23 110.77Z" fill="#E1F5FF"/>
<path d="M996.923 129.231L1015.38 129.231L1015.38 110.77L996.923 110.77L996.923 129.231Z" fill="#E1F5FF"/>
<path d="M996.923 110.77L1015.38 110.77L1015.38 92.3078L996.923 92.3078L996.923 110.77Z" fill="#E1F5FF"/>
<path d="M1033.85 110.77L1052.31 110.77L1052.31 92.3078L1033.85 92.3078L1033.85 110.77Z" fill="#E1F5FF"/>
<path d="M1015.39 110.77L1033.85 110.77L1033.85 92.3078L1015.39 92.3078L1015.39 110.77Z" fill="#E1F5FF"/>
<path d="M1200 110.77L1218.46 110.77L1218.46 92.3078L1200 92.3078L1200 110.77Z" fill="#E1F5FF"/>
<path d="M1310.77 110.77L1329.23 110.77L1329.23 92.3078L1310.77 92.3078L1310.77 110.77Z" fill="white"/>
<path d="M1273.85 110.77L1292.31 110.77L1292.31 92.3078L1273.85 92.3078L1273.85 110.77Z" fill="#E1F5FF"/>
<path d="M1236.92 110.77L1255.39 110.77L1255.39 92.3078L1236.92 92.3078L1236.92 110.77Z" fill="#E1F5FF"/>
<path d="M1292.31 110.77L1310.77 110.77L1310.77 92.3078L1292.31 92.3078L1292.31 110.77Z" fill="#E1F5FF"/>
<path d="M1144.62 110.77L1163.08 110.77L1163.08 92.3078L1144.62 92.3078L1144.62 110.77Z" fill="#E1F5FF"/>
<path d="M1218.46 110.77L1236.92 110.77L1236.92 92.3078L1218.46 92.3078L1218.46 110.77Z" fill="#E1F5FF"/>
<path d="M1181.54 110.77L1200 110.77L1200 92.3078L1181.54 92.3078L1181.54 110.77Z" fill="white"/>
<path d="M1163.08 110.77L1181.54 110.77L1181.54 92.3078L1163.08 92.3078L1163.08 110.77Z" fill="#E1F5FF"/>
<path d="M996.923 147.694L1015.38 147.694L1015.38 129.232L996.923 129.232L996.923 147.694Z" fill="#E1F5FF"/>
<path d="M996.923 166.155L1015.38 166.155L1015.38 147.693L996.923 147.693L996.923 166.155Z" fill="white"/>
<path d="M1329.23 73.847L1347.69 73.847L1347.69 55.3858L1329.23 55.3858L1329.23 73.847Z" fill="#E1F5FF"/>
<path d="M1255.38 92.3079L1273.85 92.3079L1273.85 73.8467L1255.38 73.8467L1255.38 92.3079Z" fill="#E1F5FF"/>
<path d="M1366.15 73.847L1384.62 73.847L1384.62 55.3858L1366.15 55.3858L1366.15 73.847Z" fill="white"/>
<path d="M1347.69 73.847L1366.15 73.847L1366.15 55.3858L1347.69 55.3858L1347.69 73.847Z" fill="white"/>
<path d="M1236.92 92.3079L1255.39 92.3079L1255.39 73.8467L1236.92 73.8467L1236.92 92.3079Z" fill="#E1F5FF"/>
<path d="M996.923 92.3079L1015.38 92.3079L1015.38 73.8467L996.923 73.8467L996.923 92.3079Z" fill="#E1F5FF"/>
<path d="M978.462 92.3079L996.923 92.3079L996.923 73.8467L978.462 73.8467L978.462 92.3079Z" fill="#E1F5FF"/>
<path d="M1015.39 92.3079L1033.85 92.3079L1033.85 73.8467L1015.39 73.8467L1015.39 92.3079Z" fill="#E1F5FF"/>
<path d="M1033.85 92.3079L1052.31 92.3079L1052.31 73.8467L1033.85 73.8467L1033.85 92.3079Z" fill="#E1F5FF"/>
<path d="M978.462 129.231L996.923 129.231L996.923 110.77L978.462 110.77L978.462 129.231Z" fill="#E1F5FF"/>
<path d="M978.462 147.694L996.923 147.694L996.923 129.232L978.462 129.232L978.462 147.694Z" fill="white"/>
<path d="M978.462 166.155L996.923 166.155L996.923 147.693L978.462 147.693L978.462 166.155Z" fill="white"/>
<path d="M978.462 110.77L996.923 110.77L996.923 92.3078L978.462 92.3078L978.462 110.77Z" fill="#E1F5FF"/>
<path d="M1052.31 92.3079L1070.77 92.3079L1070.77 73.8467L1052.31 73.8467L1052.31 92.3079Z" fill="#BFE7FF"/>
<path d="M1163.08 92.3079L1181.54 92.3079L1181.54 73.8467L1163.08 73.8467L1163.08 92.3079Z" fill="#E1F5FF"/>
<path d="M1181.54 92.3079L1200 92.3079L1200 73.8467L1181.54 73.8467L1181.54 92.3079Z" fill="#E1F5FF"/>
<path d="M1200 92.3079L1218.46 92.3079L1218.46 73.8467L1200 73.8467L1200 92.3079Z" fill="#E1F5FF"/>
<path d="M1218.46 92.3079L1236.92 92.3079L1236.92 73.8467L1218.46 73.8467L1218.46 92.3079Z" fill="#E1F5FF"/>
<path d="M1089.23 92.3079L1107.69 92.3079L1107.69 73.8467L1089.23 73.8467L1089.23 92.3079Z" fill="#BFE7FF"/>
<path d="M1070.77 92.3079L1089.23 92.3079L1089.23 73.8467L1070.77 73.8467L1070.77 92.3079Z" fill="#BFE7FF"/>
<path d="M1107.69 92.3079L1126.15 92.3079L1126.15 73.8467L1107.69 73.8467L1107.69 92.3079Z" fill="#E1F5FF"/>
<path d="M1144.62 92.3079L1163.08 92.3079L1163.08 73.8467L1144.62 73.8467L1144.62 92.3079Z" fill="#E1F5FF"/>
<path d="M1126.15 92.3079L1144.62 92.3079L1144.62 73.8467L1126.15 73.8467L1126.15 92.3079Z" fill="#E1F5FF"/>
<path d="M738.462 92.3079L756.923 92.3079L756.923 73.8467L738.462 73.8467L738.462 92.3079Z" fill="#BFE7FF"/>
<path d="M738.462 73.847L756.923 73.847L756.923 55.3858L738.462 55.3858L738.462 73.847Z" fill="#BFE7FF"/>
<path d="M738.462 55.3856L756.923 55.3856L756.923 36.9243L738.462 36.9243L738.462 55.3856Z" fill="#BFE7FF"/>
<path d="M738.462 36.9236L756.923 36.9236L756.923 18.4625L738.462 18.4625L738.462 36.9236Z" fill="#BFE7FF"/>
<path d="M738.462 18.4622L756.923 18.4622L756.923 0.000183109L738.462 0.000181495L738.462 18.4622Z" fill="#BFE7FF"/>
<path d="M738.462 184.616L756.923 184.616L756.923 166.155L738.462 166.155L738.462 184.616Z" fill="#E1F5FF"/>
<path d="M738.462 110.77L756.923 110.77L756.923 92.3078L738.462 92.3078L738.462 110.77Z" fill="#BFE7FF"/>
<path d="M738.462 166.155L756.923 166.155L756.923 147.693L738.462 147.693L738.462 166.155Z" fill="#E1F5FF"/>
<path d="M738.462 147.694L756.923 147.694L756.923 129.232L738.462 129.232L738.462 147.694Z" fill="#BFE7FF"/>
<path d="M738.462 129.231L756.923 129.231L756.923 110.77L738.462 110.77L738.462 129.231Z" fill="#BFE7FF"/>
<path d="M738.462 276.924L756.923 276.924L756.923 258.462L738.462 258.462L738.462 276.924Z" fill="white"/>
<path d="M738.462 258.462L756.923 258.462L756.923 240.001L738.462 240.001L738.462 258.462Z" fill="white"/>
<path d="M738.462 240.001L756.923 240.001L756.923 221.54L738.462 221.54L738.462 240.001Z" fill="#E1F5FF"/>
<path d="M738.462 221.539L756.923 221.539L756.923 203.078L738.462 203.078L738.462 221.539Z" fill="#E1F5FF"/>
<path d="M738.462 203.078L756.923 203.078L756.923 184.617L738.462 184.617L738.462 203.078Z" fill="#E1F5FF"/>
<path d="M756.923 276.924L775.384 276.924L775.384 258.462L756.923 258.462L756.923 276.924Z" fill="white"/>
<path d="M756.923 129.231L775.384 129.231L775.384 110.77L756.923 110.77L756.923 129.231Z" fill="#BFE7FF"/>
<path d="M756.923 258.462L775.384 258.462L775.384 240.001L756.923 240.001L756.923 258.462Z" fill="white"/>
<path d="M756.923 147.694L775.384 147.694L775.384 129.232L756.923 129.232L756.923 147.694Z" fill="#BFE7FF"/>
<path d="M756.923 110.77L775.384 110.77L775.384 92.3078L756.923 92.3078L756.923 110.77Z" fill="#BFE7FF"/>
<path d="M756.923 166.155L775.384 166.155L775.384 147.693L756.923 147.693L756.923 166.155Z" fill="#E1F5FF"/>
<path d="M756.923 184.616L775.384 184.616L775.384 166.155L756.923 166.155L756.923 184.616Z" fill="#E1F5FF"/>
<path d="M756.923 221.539L775.384 221.539L775.384 203.078L756.923 203.078L756.923 221.539Z" fill="#E1F5FF"/>
<path d="M756.923 240.001L775.384 240.001L775.384 221.54L756.923 221.54L756.923 240.001Z" fill="#E1F5FF"/>
<path d="M756.923 203.078L775.384 203.078L775.384 184.617L756.923 184.617L756.923 203.078Z" fill="#E1F5FF"/>
<path d="M756.923 92.3079L775.384 92.3079L775.384 73.8467L756.923 73.8467L756.923 92.3079Z" fill="#BFE7FF"/>
<path d="M756.923 73.847L775.384 73.847L775.384 55.3858L756.923 55.3858L756.923 73.847Z" fill="#BFE7FF"/>
<path d="M756.923 55.3856L775.384 55.3856L775.384 36.9243L756.923 36.9243L756.923 55.3856Z" fill="#BFE7FF"/>
<path d="M756.923 36.9236L775.384 36.9236L775.384 18.4625L756.923 18.4625L756.923 36.9236Z" fill="#BFE7FF"/>
<path d="M756.923 18.4622L775.384 18.4622L775.384 0.000183109L756.923 0.000181495L756.923 18.4622Z" fill="#BFE7FF"/>
<path d="M701.539 203.078L720 203.078L720 184.617L701.539 184.617L701.539 203.078Z" fill="#E1F5FF"/>
<path d="M701.539 240.001L720 240.001L720 221.54L701.539 221.54L701.539 240.001Z" fill="#E1F5FF"/>
<path d="M701.539 221.539L720 221.539L720 203.078L701.539 203.078L701.539 221.539Z" fill="#E1F5FF"/>
<path d="M701.539 258.462L720 258.462L720 240.001L701.539 240.001L701.539 258.462Z" fill="white"/>
<path d="M701.539 18.4622L720 18.4622L720 0.000183109L701.539 0.000181495L701.539 18.4622Z" fill="#BFE7FF"/>
<path d="M701.539 92.3079L720 92.3079L720 73.8467L701.539 73.8467L701.539 92.3079Z" fill="#BFE7FF"/>
<path d="M701.539 73.847L720 73.847L720 55.3858L701.539 55.3858L701.539 73.847Z" fill="#BFE7FF"/>
<path d="M701.539 55.3856L720 55.3856L720 36.9243L701.539 36.9243L701.539 55.3856Z" fill="#BFE7FF"/>
<path d="M701.539 184.616L720 184.616L720 166.155L701.539 166.155L701.539 184.616Z" fill="#E1F5FF"/>
<path d="M701.539 36.9236L720 36.9236L720 18.4625L701.539 18.4625L701.539 36.9236Z" fill="#BFE7FF"/>
<path d="M701.539 110.77L720 110.77L720 92.3078L701.539 92.3078L701.539 110.77Z" fill="#BFE7FF"/>
<path d="M701.539 147.694L720 147.694L720 129.232L701.539 129.232L701.539 147.694Z" fill="#BFE7FF"/>
<path d="M701.539 166.155L720 166.155L720 147.693L701.539 147.693L701.539 166.155Z" fill="#E1F5FF"/>
<path d="M701.539 129.231L720 129.231L720 110.77L701.539 110.77L701.539 129.231Z" fill="#BFE7FF"/>
<path d="M720 92.3079L738.461 92.3079L738.461 73.8467L720 73.8467L720 92.3079Z" fill="#BFE7FF"/>
<path d="M720 184.616L738.461 184.616L738.461 166.155L720 166.155L720 184.616Z" fill="#E1F5FF"/>
<path d="M720 147.694L738.461 147.694L738.461 129.232L720 129.232L720 147.694Z" fill="#BFE7FF"/>
<path d="M720 203.078L738.461 203.078L738.461 184.617L720 184.617L720 203.078Z" fill="#E1F5FF"/>
<path d="M720 258.462L738.461 258.462L738.461 240.001L720 240.001L720 258.462Z" fill="white"/>
<path d="M720 221.539L738.461 221.539L738.461 203.078L720 203.078L720 221.539Z" fill="#E1F5FF"/>
<path d="M720 129.231L738.461 129.231L738.461 110.77L720 110.77L720 129.231Z" fill="#BFE7FF"/>
<path d="M720 240.001L738.461 240.001L738.461 221.54L720 221.54L720 240.001Z" fill="#E1F5FF"/>
<path d="M720 18.4622L738.461 18.4622L738.461 0.000183109L720 0.000181495L720 18.4622Z" fill="#BFE7FF"/>
<path d="M720 36.9236L738.461 36.9236L738.461 18.4625L720 18.4625L720 36.9236Z" fill="#BFE7FF"/>
<path d="M720 73.847L738.461 73.847L738.461 55.3858L720 55.3858L720 73.847Z" fill="#BFE7FF"/>
<path d="M720 110.77L738.461 110.77L738.461 92.3078L720 92.3078L720 110.77Z" fill="#BFE7FF"/>
<path d="M720 55.3856L738.461 55.3856L738.461 36.9243L720 36.9243L720 55.3856Z" fill="#A0D5EF"/>
<path d="M720 166.155L738.461 166.155L738.461 147.693L720 147.693L720 166.155Z" fill="#BFE7FF"/>
<path d="M812.308 295.386L830.769 295.386L830.769 276.924L812.308 276.924L812.308 295.386Z" fill="white"/>
<path d="M812.308 240.001L830.769 240.001L830.769 221.54L812.308 221.54L812.308 240.001Z" fill="#E1F5FF"/>
<path d="M812.308 221.539L830.769 221.539L830.769 203.078L812.308 203.078L812.308 221.539Z" fill="#E1F5FF"/>
<path d="M812.308 203.078L830.769 203.078L830.769 184.617L812.308 184.617L812.308 203.078Z" fill="#E1F5FF"/>
<path d="M812.308 147.694L830.769 147.694L830.769 129.232L812.308 129.232L812.308 147.694Z" fill="#BFE7FF"/>
<path d="M812.308 166.155L830.769 166.155L830.769 147.693L812.308 147.693L812.308 166.155Z" fill="#E1F5FF"/>
<path d="M812.308 276.924L830.769 276.924L830.769 258.462L812.308 258.462L812.308 276.924Z" fill="white"/>
<path d="M812.308 258.462L830.769 258.462L830.769 240.001L812.308 240.001L812.308 258.462Z" fill="white"/>
<path d="M812.308 73.847L830.769 73.847L830.769 55.3858L812.308 55.3858L812.308 73.847Z" fill="#BFE7FF"/>
<path d="M812.308 36.9236L830.769 36.9236L830.769 18.4625L812.308 18.4625L812.308 36.9236Z" fill="#BFE7FF"/>
<path d="M812.308 18.4622L830.769 18.4622L830.769 0.000183109L812.308 0.000181495L812.308 18.4622Z" fill="#A0D5EF"/>
<path d="M812.308 92.3079L830.769 92.3079L830.769 73.8467L812.308 73.8467L812.308 92.3079Z" fill="#BFE7FF"/>
<path d="M812.308 55.3856L830.769 55.3856L830.769 36.9243L812.308 36.9243L812.308 55.3856Z" fill="#BFE7FF"/>
<path d="M812.308 129.231L830.769 129.231L830.769 110.77L812.308 110.77L812.308 129.231Z" fill="#BFE7FF"/>
<path d="M812.308 110.77L830.769 110.77L830.769 92.3078L812.308 92.3078L812.308 110.77Z" fill="#BFE7FF"/>
<path d="M812.308 184.616L830.769 184.616L830.769 166.155L812.308 166.155L812.308 184.616Z" fill="#E1F5FF"/>
<path d="M830.77 276.924L849.231 276.924L849.231 258.462L830.77 258.462L830.77 276.924Z" fill="white"/>
<path d="M830.77 147.694L849.231 147.694L849.231 129.232L830.77 129.232L830.77 147.694Z" fill="#BFE7FF"/>
<path d="M830.77 129.231L849.231 129.231L849.231 110.77L830.77 110.77L830.77 129.231Z" fill="#BFE7FF"/>
<path d="M830.77 184.616L849.231 184.616L849.231 166.155L830.77 166.155L830.77 184.616Z" fill="#E1F5FF"/>
<path d="M830.77 166.155L849.231 166.155L849.231 147.693L830.77 147.693L830.77 166.155Z" fill="#E1F5FF"/>
<path d="M830.77 258.462L849.231 258.462L849.231 240.001L830.77 240.001L830.77 258.462Z" fill="white"/>
<path d="M830.77 240.001L849.231 240.001L849.231 221.54L830.77 221.54L830.77 240.001Z" fill="white"/>
<path d="M830.77 110.77L849.231 110.77L849.231 92.3078L830.77 92.3078L830.77 110.77Z" fill="#BFE7FF"/>
<path d="M830.77 221.539L849.231 221.539L849.231 203.078L830.77 203.078L830.77 221.539Z" fill="#E1F5FF"/>
<path d="M830.77 203.078L849.231 203.078L849.231 184.617L830.77 184.617L830.77 203.078Z" fill="#E1F5FF"/>
<path d="M830.77 92.3079L849.231 92.3079L849.231 73.8467L830.77 73.8467L830.77 92.3079Z" fill="#BFE7FF"/>
<path d="M830.77 36.9236L849.231 36.9236L849.231 18.4625L830.77 18.4625L830.77 36.9236Z" fill="#BFE7FF"/>
<path d="M830.77 55.3856L849.231 55.3856L849.231 36.9243L830.77 36.9243L830.77 55.3856Z" fill="#BFE7FF"/>
<path d="M830.77 18.4622L849.231 18.4622L849.231 0.000183109L830.77 0.000181495L830.77 18.4622Z" fill="#A0D5EF"/>
<path d="M830.77 73.847L849.231 73.847L849.231 55.3858L830.77 55.3858L830.77 73.847Z" fill="#BFE7FF"/>
<path d="M775.385 295.386L793.846 295.386L793.846 276.924L775.385 276.924L775.385 295.386Z" fill="white"/>
<path d="M775.385 166.155L793.846 166.155L793.846 147.693L775.385 147.693L775.385 166.155Z" fill="#E1F5FF"/>
<path d="M775.385 184.616L793.846 184.616L793.846 166.155L775.385 166.155L775.385 184.616Z" fill="#E1F5FF"/>
<path d="M775.385 147.694L793.846 147.694L793.846 129.232L775.385 129.232L775.385 147.694Z" fill="#BFE7FF"/>
<path d="M775.385 203.078L793.846 203.078L793.846 184.617L775.385 184.617L775.385 203.078Z" fill="#E1F5FF"/>
<path d="M775.385 221.539L793.846 221.539L793.846 203.078L775.385 203.078L775.385 221.539Z" fill="#E1F5FF"/>
<path d="M775.385 258.462L793.846 258.462L793.846 240.001L775.385 240.001L775.385 258.462Z" fill="white"/>
<path d="M775.385 276.924L793.846 276.924L793.846 258.462L775.385 258.462L775.385 276.924Z" fill="white"/>
<path d="M775.385 129.231L793.846 129.231L793.846 110.77L775.385 110.77L775.385 129.231Z" fill="#BFE7FF"/>
<path d="M775.385 240.001L793.846 240.001L793.846 221.54L775.385 221.54L775.385 240.001Z" fill="#E1F5FF"/>
<path d="M775.385 110.77L793.846 110.77L793.846 92.3078L775.385 92.3078L775.385 110.77Z" fill="#BFE7FF"/>
<path d="M775.385 18.4622L793.846 18.4622L793.846 0.000183109L775.385 0.000181495L775.385 18.4622Z" fill="#BFE7FF"/>
<path d="M775.385 73.847L793.846 73.847L793.846 55.3858L775.385 55.3858L775.385 73.847Z" fill="#BFE7FF"/>
<path d="M775.385 92.3079L793.846 92.3079L793.846 73.8467L775.385 73.8467L775.385 92.3079Z" fill="#BFE7FF"/>
<path d="M775.385 36.9236L793.846 36.9236L793.846 18.4625L775.385 18.4625L775.385 36.9236Z" fill="#BFE7FF"/>
<path d="M775.385 55.3856L793.846 55.3856L793.846 36.9243L775.385 36.9243L775.385 55.3856Z" fill="#BFE7FF"/>
<path d="M793.846 92.3079L812.308 92.3079L812.308 73.8467L793.846 73.8467L793.846 92.3079Z" fill="#BFE7FF"/>
<path d="M793.847 258.462L812.308 258.462L812.308 240.001L793.847 240.001L793.847 258.462Z" fill="white"/>
<path d="M793.846 18.4622L812.308 18.4622L812.308 0.000183109L793.846 0.000181495L793.846 18.4622Z" fill="#A0D5EF"/>
<path d="M793.847 276.924L812.308 276.924L812.308 258.462L793.847 258.462L793.847 276.924Z" fill="white"/>
<path d="M793.846 221.539L812.308 221.539L812.308 203.078L793.846 203.078L793.846 221.539Z" fill="#E1F5FF"/>
<path d="M793.846 240.001L812.308 240.001L812.308 221.54L793.846 221.54L793.846 240.001Z" fill="#E1F5FF"/>
<path d="M793.847 295.386L812.308 295.386L812.308 276.924L793.847 276.924L793.847 295.386Z" fill="white"/>
<path d="M793.846 203.078L812.308 203.078L812.308 184.617L793.846 184.617L793.846 203.078Z" fill="#E1F5FF"/>
<path d="M793.846 55.3856L812.308 55.3856L812.308 36.9243L793.846 36.9243L793.846 55.3856Z" fill="#BFE7FF"/>
<path d="M793.846 73.847L812.308 73.847L812.308 55.3858L793.846 55.3858L793.846 73.847Z" fill="#BFE7FF"/>
<path d="M793.846 36.9236L812.308 36.9236L812.308 18.4625L793.846 18.4625L793.846 36.9236Z" fill="#BFE7FF"/>
<path d="M793.846 110.77L812.308 110.77L812.308 92.3078L793.846 92.3078L793.846 110.77Z" fill="#BFE7FF"/>
<path d="M793.846 147.694L812.308 147.694L812.308 129.232L793.846 129.232L793.846 147.694Z" fill="#BFE7FF"/>
<path d="M793.846 166.155L812.308 166.155L812.308 147.693L793.846 147.693L793.846 166.155Z" fill="#E1F5FF"/>
<path d="M793.846 129.231L812.308 129.231L812.308 110.77L793.846 110.77L793.846 129.231Z" fill="#BFE7FF"/>
<path d="M793.846 184.616L812.308 184.616L812.308 166.155L793.846 166.155L793.846 184.616Z" fill="#E1F5FF"/>
<path d="M498.462 129.231L516.923 129.231L516.923 110.77L498.462 110.77L498.462 129.231Z" fill="#BFE7FF"/>
<path d="M498.462 110.77L516.923 110.77L516.923 92.3078L498.462 92.3078L498.462 110.77Z" fill="#BFE7FF"/>
<path d="M498.462 92.3079L516.923 92.3079L516.923 73.8467L498.462 73.8467L498.462 92.3079Z" fill="#BFE7FF"/>
<path d="M498.462 55.3856L516.923 55.3856L516.923 36.9243L498.462 36.9243L498.462 55.3856Z" fill="#BFE7FF"/>
<path d="M498.462 36.9236L516.923 36.9236L516.923 18.4625L498.462 18.4625L498.462 36.9236Z" fill="#A0D5EF"/>
<path d="M498.462 18.4622L516.923 18.4622L516.923 0.000183109L498.462 0.000181495L498.462 18.4622Z" fill="#A0D5EF"/>
<path d="M498.462 73.847L516.923 73.847L516.923 55.3858L498.462 55.3858L498.462 73.847Z" fill="#BFE7FF"/>
<path d="M1.33514e-05 36.9232L18.4612 36.9232L18.4612 18.462L1.49654e-05 18.462L1.33514e-05 36.9232Z" fill="white"/>
<path d="M18.4612 36.9232L36.9224 36.9232L36.9224 18.462L18.4612 18.462L18.4612 36.9232Z" fill="white"/>
<path d="M129.231 36.9232L147.692 36.9232L147.692 18.462L129.231 18.462L129.231 36.9232Z" fill="#BFE7FF"/>
<path d="M110.769 36.9232L129.23 36.9232L129.23 18.462L110.769 18.462L110.769 36.9232Z" fill="#BFE7FF"/>
<path d="M166.154 36.9232L184.616 36.9232L184.616 18.462L166.154 18.462L166.154 36.9232Z" fill="#BFE7FF"/>
<path d="M147.692 36.9232L166.153 36.9232L166.153 18.462L147.692 18.462L147.692 36.9232Z" fill="#BFE7FF"/>
<path d="M55.3844 36.9232L73.8457 36.9232L73.8457 18.462L55.3844 18.462L55.3844 36.9232Z" fill="#BFE7FF"/>
<path d="M36.9232 36.9236L55.3844 36.9236L55.3844 18.4625L36.9232 18.4625L36.9232 36.9236Z" fill="white"/>
<path d="M73.8466 36.9232L92.3078 36.9232L92.3078 18.462L73.8466 18.462L73.8466 36.9232Z" fill="#BFE7FF"/>
<path d="M92.3078 36.9232L110.769 36.9232L110.769 18.462L92.3078 18.462L92.3078 36.9232Z" fill="#BFE7FF"/>
<path d="M184.615 36.9232L203.077 36.9232L203.077 18.462L184.616 18.462L184.615 36.9232Z" fill="#BFE7FF"/>
<path d="M443.077 36.9236L461.538 36.9236L461.538 18.4625L443.077 18.4625L443.077 36.9236Z" fill="#A0D5EF"/>
<path d="M203.077 36.9236L221.538 36.9236L221.538 18.4625L203.077 18.4625L203.077 36.9236Z" fill="#BFE7FF"/>
<path d="M461.539 147.694L480 147.694L480 129.232L461.539 129.232L461.539 147.694Z" fill="#BFE7FF"/>
<path d="M332.308 36.9236L350.769 36.9236L350.769 18.4625L332.308 18.4625L332.308 36.9236Z" fill="#A0D5EF"/>
<path d="M369.231 36.9236L387.692 36.9236L387.692 18.4625L369.231 18.4625L369.231 36.9236Z" fill="#A0D5EF"/>
<path d="M295.384 36.9236L313.846 36.9236L313.846 18.4625L295.384 18.4625L295.384 36.9236Z" fill="#A0D5EF"/>
<path d="M350.769 36.9236L369.23 36.9236L369.23 18.4625L350.769 18.4625L350.769 36.9236Z" fill="#A0D5EF"/>
<path d="M313.846 36.9236L332.308 36.9236L332.308 18.4625L313.846 18.4625L313.846 36.9236Z" fill="#A0D5EF"/>
<path d="M461.539 129.231L480 129.231L480 110.77L461.539 110.77L461.539 129.231Z" fill="#BFE7FF"/>
<path d="M240 36.9236L258.461 36.9236L258.461 18.4625L240 18.4625L240 36.9236Z" fill="#BFE7FF"/>
<path d="M258.462 36.9236L276.923 36.9236L276.923 18.4625L258.462 18.4625L258.462 36.9236Z" fill="#BFE7FF"/>
<path d="M276.923 36.9236L295.384 36.9236L295.384 18.4625L276.923 18.4625L276.923 36.9236Z" fill="#BFE7FF"/>
<path d="M221.539 36.9236L240 36.9236L240 18.4625L221.539 18.4625L221.539 36.9236Z" fill="#BFE7FF"/>
<path d="M461.539 73.847L480 73.847L480 55.3858L461.539 55.3858L461.539 73.847Z" fill="#BFE7FF"/>
<path d="M461.539 55.3856L480 55.3856L480 36.9243L461.539 36.9243L461.539 55.3856Z" fill="#BFE7FF"/>
<path d="M461.539 92.3079L480 92.3079L480 73.8467L461.539 73.8467L461.539 92.3079Z" fill="#BFE7FF"/>
<path d="M461.539 110.77L480 110.77L480 92.3078L461.539 92.3078L461.539 110.77Z" fill="#BFE7FF"/>
<path d="M424.616 36.9236L443.077 36.9236L443.077 18.4625L424.616 18.4625L424.616 36.9236Z" fill="#A0D5EF"/>
<path d="M461.539 36.9236L480 36.9236L480 18.4625L461.539 18.4625L461.539 36.9236Z" fill="#A0D5EF"/>
<path d="M406.154 36.9236L424.615 36.9236L424.615 18.4625L406.154 18.4625L406.154 36.9236Z" fill="#A0D5EF"/>
<path d="M387.692 36.9236L406.153 36.9236L406.153 18.4625L387.692 18.4625L387.692 36.9236Z" fill="#A0D5EF"/>
<path d="M332.308 18.4622L350.769 18.4622L350.769 0.000183109L332.308 0.000181495L332.308 18.4622Z" fill="#A0D5EF"/>
<path d="M424.616 18.4622L443.077 18.4622L443.077 0.000183109L424.616 0.000181495L424.616 18.4622Z" fill="#A0D5EF"/>
<path d="M443.077 18.4622L461.538 18.4622L461.538 0.000183109L443.077 0.000181495L443.077 18.4622Z" fill="#A0D5EF"/>
<path d="M480 36.9236L498.461 36.9236L498.461 18.4625L480 18.4625L480 36.9236Z" fill="#A0D5EF"/>
<path d="M406.154 18.4622L424.615 18.4622L424.615 0.000183109L406.154 0.000181495L406.154 18.4622Z" fill="#A0D5EF"/>
<path d="M350.769 18.4622L369.23 18.4622L369.23 0.000183109L350.769 0.000181495L350.769 18.4622Z" fill="#A0D5EF"/>
<path d="M369.231 18.4622L387.692 18.4622L387.692 0.000183109L369.231 0.000181495L369.231 18.4622Z" fill="#A0D5EF"/>
<path d="M480 55.3856L498.461 55.3856L498.461 36.9243L480 36.9243L480 55.3856Z" fill="#BFE7FF"/>
<path d="M387.692 18.4622L406.153 18.4622L406.153 0.000183109L387.692 0.000181495L387.692 18.4622Z" fill="#A0D5EF"/>
<path d="M461.539 18.4622L480 18.4622L480 0.000183109L461.539 0.000181495L461.539 18.4622Z" fill="#A0D5EF"/>
<path d="M480 73.847L498.461 73.847L498.461 55.3858L480 55.3858L480 73.847Z" fill="#BFE7FF"/>
<path d="M480 110.77L498.461 110.77L498.461 92.3078L480 92.3078L480 110.77Z" fill="#BFE7FF"/>
<path d="M480 92.3079L498.461 92.3079L498.461 73.8467L480 73.8467L480 92.3079Z" fill="#BFE7FF"/>
<path d="M480 129.231L498.461 129.231L498.461 110.77L480 110.77L480 129.231Z" fill="#BFE7FF"/>
<path d="M480 18.4622L498.461 18.4622L498.461 0.000183109L480 0.000181495L480 18.4622Z" fill="#A0D5EF"/>
<path d="M129.231 18.4622L147.692 18.4622L147.692 0.000183109L129.231 0.000181495L129.231 18.4622Z" fill="#BFE7FF"/>
<path d="M92.3078 18.4622L110.769 18.4622L110.769 0.000183109L92.3078 0.000181495L92.3078 18.4622Z" fill="#BFE7FF"/>
<path d="M55.3844 18.4622L73.8457 18.4622L73.8457 0.000183109L55.3844 0.000181495L55.3844 18.4622Z" fill="#BFE7FF"/>
<path d="M110.769 18.4622L129.23 18.4622L129.23 0.000183109L110.769 0.000181495L110.769 18.4622Z" fill="#BFE7FF"/>
<path d="M73.8466 18.4622L92.3078 18.4622L92.3078 0.000183109L73.8466 0.000181495L73.8466 18.4622Z" fill="#BFE7FF"/>
<path d="M2.86102e-05 18.4622L18.4612 18.4622L18.4612 0.000183109L3.02242e-05 0.000181495L2.86102e-05 18.4622Z" fill="white"/>
<path d="M18.4612 18.4622L36.9224 18.4622L36.9224 0.000183109L18.4612 0.000181495L18.4612 18.4622Z" fill="white"/>
<path d="M36.9232 18.4622L55.3844 18.4622L55.3844 0.000183109L36.9232 0.000181495L36.9232 18.4622Z" fill="#BFE7FF"/>
<path d="M240 18.4622L258.461 18.4622L258.461 0.000183109L240 0.000181495L240 18.4622Z" fill="#A0D5EF"/>
<path d="M276.923 18.4622L295.384 18.4622L295.384 0.000183109L276.923 0.000181495L276.923 18.4622Z" fill="#A0D5EF"/>
<path d="M295.384 18.4622L313.846 18.4622L313.846 0.000183109L295.384 0.000181495L295.384 18.4622Z" fill="#A0D5EF"/>
<path d="M313.846 18.4622L332.308 18.4622L332.308 0.000183109L313.846 0.000181495L313.846 18.4622Z" fill="#A0D5EF"/>
<path d="M203.077 18.4622L221.538 18.4622L221.538 0.000183109L203.077 0.000181495L203.077 18.4622Z" fill="#BFE7FF"/>
<path d="M184.616 18.4622L203.077 18.4622L203.077 0.000183109L184.616 0.000181495L184.616 18.4622Z" fill="#BFE7FF"/>
<path d="M166.154 18.4622L184.616 18.4622L184.616 0.000183109L166.154 0.000181495L166.154 18.4622Z" fill="#BFE7FF"/>
<path d="M147.692 18.4622L166.153 18.4622L166.153 0.000183109L147.692 0.000181495L147.692 18.4622Z" fill="#BFE7FF"/>
<path d="M221.539 18.4622L240 18.4622L240 0.000183109L221.539 0.000181495L221.539 18.4622Z" fill="#A0D5EF"/>
<path d="M258.462 18.4622L276.923 18.4622L276.923 0.000183109L258.462 0.000181495L258.462 18.4622Z" fill="#A0D5EF"/>
<path d="M535.384 18.4622L553.846 18.4622L553.846 0.000183109L535.384 0.000181495L535.384 18.4622Z" fill="#A0D5EF"/>
<path d="M535.384 36.9236L553.846 36.9236L553.846 18.4625L535.384 18.4625L535.384 36.9236Z" fill="#BFE7FF"/>
<path d="M535.384 73.847L553.846 73.847L553.846 55.3858L535.384 55.3858L535.384 73.847Z" fill="#BFE7FF"/>
<path d="M535.384 92.3079L553.846 92.3079L553.846 73.8467L535.384 73.8467L535.384 92.3079Z" fill="#BFE7FF"/>
<path d="M535.384 55.3856L553.846 55.3856L553.846 36.9243L535.384 36.9243L535.384 55.3856Z" fill="#BFE7FF"/>
<path d="M535.384 129.231L553.846 129.231L553.846 110.77L535.384 110.77L535.384 129.231Z" fill="#E1F5FF"/>
<path d="M535.384 110.77L553.846 110.77L553.846 92.3078L535.384 92.3078L535.384 110.77Z" fill="#BFE7FF"/>
<path d="M553.847 36.9236L572.308 36.9236L572.308 18.4625L553.847 18.4625L553.847 36.9236Z" fill="#BFE7FF"/>
<path d="M553.847 18.4622L572.308 18.4622L572.308 0.000183109L553.847 0.000181495L553.847 18.4622Z" fill="#BFE7FF"/>
<path d="M553.846 166.155L572.308 166.155L572.308 147.693L553.846 147.693L553.846 166.155Z" fill="white"/>
<path d="M553.846 184.616L572.308 184.616L572.308 166.155L553.846 166.155L553.846 184.616Z" fill="white"/>
<path d="M553.847 203.078L572.308 203.078L572.308 184.617L553.847 184.617L553.847 203.078Z" fill="white"/>
<path d="M553.846 147.694L572.308 147.694L572.308 129.232L553.846 129.232L553.846 147.694Z" fill="white"/>
<path d="M553.847 73.847L572.308 73.847L572.308 55.3858L553.847 55.3858L553.847 73.847Z" fill="#BFE7FF"/>
<path d="M553.847 55.3856L572.308 55.3856L572.308 36.9243L553.847 36.9243L553.847 55.3856Z" fill="#BFE7FF"/>
<path d="M553.847 92.3079L572.308 92.3079L572.308 73.8467L553.847 73.8467L553.847 92.3079Z" fill="#BFE7FF"/>
<path d="M553.846 129.231L572.308 129.231L572.308 110.77L553.846 110.77L553.846 129.231Z" fill="#E1F5FF"/>
<path d="M553.847 110.77L572.308 110.77L572.308 92.3078L553.847 92.3078L553.847 110.77Z" fill="#E1F5FF"/>
<path d="M516.923 129.231L535.384 129.231L535.384 110.77L516.923 110.77L516.923 129.231Z" fill="white"/>
<path d="M516.923 55.3856L535.384 55.3856L535.384 36.9243L516.923 36.9243L516.923 55.3856Z" fill="#BFE7FF"/>
<path d="M516.923 92.3079L535.384 92.3079L535.384 73.8467L516.923 73.8467L516.923 92.3079Z" fill="#BFE7FF"/>
<path d="M516.923 73.847L535.384 73.847L535.384 55.3858L516.923 55.3858L516.923 73.847Z" fill="#BFE7FF"/>
<path d="M516.923 110.77L535.384 110.77L535.384 92.3078L516.923 92.3078L516.923 110.77Z" fill="#BFE7FF"/>
<path d="M516.923 18.4622L535.384 18.4622L535.384 0.000183109L516.923 0.000181495L516.923 18.4622Z" fill="#A0D5EF"/>
<path d="M516.923 36.9236L535.384 36.9236L535.384 18.4625L516.923 18.4625L516.923 36.9236Z" fill="#A0D5EF"/>
<path d="M166.154 147.693L184.615 147.693L184.615 129.231L166.154 129.231L166.154 147.693Z" fill="white"/>
<path d="M240 147.694L258.461 147.694L258.461 129.232L240 129.232L240 147.694Z" fill="#E1F5FF"/>
<path d="M184.615 147.693L203.077 147.693L203.077 129.231L184.615 129.231L184.615 147.693Z" fill="white"/>
<path d="M221.539 147.694L240 147.694L240 129.232L221.539 129.232L221.539 147.694Z" fill="#E1F5FF"/>
<path d="M147.692 147.693L166.153 147.693L166.153 129.231L147.692 129.231L147.692 147.693Z" fill="white"/>
<path d="M203.077 147.694L221.538 147.694L221.538 129.232L203.077 129.232L203.077 147.694Z" fill="white"/>
<path d="M258.462 147.694L276.923 147.694L276.923 129.232L258.462 129.232L258.462 147.694Z" fill="#E1F5FF"/>
<path d="M387.692 110.77L406.153 110.77L406.153 92.3078L387.692 92.3078L387.692 110.77Z" fill="#BFE7FF"/>
<path d="M350.769 184.616L369.23 184.616L369.23 166.155L350.769 166.155L350.769 184.616Z" fill="#E1F5FF"/>
<path d="M350.769 166.155L369.23 166.155L369.23 147.693L350.769 147.693L350.769 166.155Z" fill="#E1F5FF"/>
<path d="M350.769 203.078L369.23 203.078L369.23 184.617L350.769 184.617L350.769 203.078Z" fill="#E1F5FF"/>
<path d="M350.769 221.539L369.23 221.539L369.23 203.078L350.769 203.078L350.769 221.539Z" fill="white"/>
<path d="M350.769 147.694L369.23 147.694L369.23 129.232L350.769 129.232L350.769 147.694Z" fill="#E1F5FF"/>
<path d="M313.846 147.694L332.308 147.694L332.308 129.232L313.846 129.232L313.846 147.694Z" fill="#E1F5FF"/>
<path d="M332.308 147.694L350.769 147.694L350.769 129.232L332.308 129.232L332.308 147.694Z" fill="#E1F5FF"/>
<path d="M295.384 147.694L313.846 147.694L313.846 129.232L295.384 129.232L295.384 147.694Z" fill="#E1F5FF"/>
<path d="M276.923 147.694L295.384 147.694L295.384 129.232L276.923 129.232L276.923 147.694Z" fill="#E1F5FF"/>
<path d="M387.692 221.539L406.153 221.539L406.153 203.078L387.692 203.078L387.692 221.539Z" fill="white"/>
<path d="M387.692 203.078L406.153 203.078L406.153 184.617L387.692 184.617L387.692 203.078Z" fill="#E1F5FF"/>
<path d="M387.692 129.231L406.153 129.231L406.153 110.77L387.692 110.77L387.692 129.231Z" fill="#BFE7FF"/>
<path d="M387.692 147.694L406.153 147.694L406.153 129.232L387.692 129.232L387.692 147.694Z" fill="#E1F5FF"/>
<path d="M387.692 166.155L406.153 166.155L406.153 147.693L387.692 147.693L387.692 166.155Z" fill="#E1F5FF"/>
<path d="M387.692 184.616L406.153 184.616L406.153 166.155L387.692 166.155L387.692 184.616Z" fill="#E1F5FF"/>
<path d="M369.231 129.231L387.692 129.231L387.692 110.77L369.231 110.77L369.231 129.231Z" fill="#E1F5FF"/>
<path d="M350.769 129.231L369.23 129.231L369.23 110.77L350.769 110.77L350.769 129.231Z" fill="#E1F5FF"/>
<path d="M369.231 147.694L387.692 147.694L387.692 129.232L369.231 129.232L369.231 147.694Z" fill="#E1F5FF"/>
<path d="M369.231 166.155L387.692 166.155L387.692 147.693L369.231 147.693L369.231 166.155Z" fill="#E1F5FF"/>
<path d="M313.846 129.231L332.308 129.231L332.308 110.77L313.846 110.77L313.846 129.231Z" fill="#E1F5FF"/>
<path d="M276.923 129.231L295.384 129.231L295.384 110.77L276.923 110.77L276.923 129.231Z" fill="#E1F5FF"/>
<path d="M332.308 129.231L350.769 129.231L350.769 110.77L332.308 110.77L332.308 129.231Z" fill="#E1F5FF"/>
<path d="M295.384 129.231L313.846 129.231L313.846 110.77L295.384 110.77L295.384 129.231Z" fill="#E1F5FF"/>
<path d="M369.231 184.616L387.692 184.616L387.692 166.155L369.231 166.155L369.231 184.616Z" fill="#E1F5FF"/>
<path d="M369.231 203.078L387.692 203.078L387.692 184.617L369.231 184.617L369.231 203.078Z" fill="#E1F5FF"/>
<path d="M258.462 129.231L276.923 129.231L276.923 110.77L258.462 110.77L258.462 129.231Z" fill="#E1F5FF"/>
<path d="M369.231 221.539L387.692 221.539L387.692 203.078L369.231 203.078L369.231 221.539Z" fill="white"/>
<path d="M240 129.231L258.461 129.231L258.461 110.77L240 110.77L240 129.231Z" fill="#E1F5FF"/>
<path d="M184.615 129.231L203.077 129.231L203.077 110.77L184.615 110.77L184.615 129.231Z" fill="#E1F5FF"/>
<path d="M203.077 129.231L221.538 129.231L221.538 110.77L203.077 110.77L203.077 129.231Z" fill="#E1F5FF"/>
<path d="M166.154 129.231L184.615 129.231L184.615 110.77L166.154 110.77L166.154 129.231Z" fill="white"/>
<path d="M221.539 129.231L240 129.231L240 110.77L221.539 110.77L221.539 129.231Z" fill="#E1F5FF"/>
<path d="M147.692 129.231L166.153 129.231L166.153 110.77L147.692 110.77L147.692 129.231Z" fill="white"/>
<path d="M295.384 221.539L313.846 221.539L313.846 203.078L295.384 203.078L295.384 221.539Z" fill="white"/>
<path d="M295.384 203.078L313.846 203.078L313.846 184.617L295.384 184.617L295.384 203.078Z" fill="white"/>
<path d="M276.923 203.078L295.384 203.078L295.384 184.617L276.923 184.617L276.923 203.078Z" fill="white"/>
<path d="M166.154 166.155L184.615 166.155L184.615 147.693L166.154 147.693L166.154 166.155Z" fill="white"/>
<path d="M332.308 221.539L350.769 221.539L350.769 203.078L332.308 203.078L332.308 221.539Z" fill="white"/>
<path d="M184.615 166.155L203.077 166.155L203.077 147.693L184.615 147.693L184.615 166.155Z" fill="white"/>
<path d="M203.077 166.155L221.538 166.155L221.538 147.693L203.077 147.693L203.077 166.155Z" fill="white"/>
<path d="M332.308 184.616L350.769 184.616L350.769 166.155L332.308 166.155L332.308 184.616Z" fill="#E1F5FF"/>
<path d="M332.308 166.155L350.769 166.155L350.769 147.693L332.308 147.693L332.308 166.155Z" fill="#E1F5FF"/>
<path d="M221.539 166.155L240 166.155L240 147.693L221.539 147.693L221.539 166.155Z" fill="white"/>
<path d="M313.846 166.155L332.308 166.155L332.308 147.693L313.846 147.693L313.846 166.155Z" fill="#E1F5FF"/>
<path d="M332.308 203.078L350.769 203.078L350.769 184.617L332.308 184.617L332.308 203.078Z" fill="#E1F5FF"/>
<path d="M240 166.155L258.461 166.155L258.461 147.693L240 147.693L240 166.155Z" fill="white"/>
<path d="M258.462 166.155L276.923 166.155L276.923 147.693L258.462 147.693L258.462 166.155Z" fill="white"/>
<path d="M276.923 166.155L295.384 166.155L295.384 147.693L276.923 147.693L276.923 166.155Z" fill="white"/>
<path d="M295.384 166.155L313.846 166.155L313.846 147.693L295.384 147.693L295.384 166.155Z" fill="#E1F5FF"/>
<path d="M313.846 203.078L332.308 203.078L332.308 184.617L313.846 184.617L313.846 203.078Z" fill="white"/>
<path d="M313.846 221.539L332.308 221.539L332.308 203.078L313.846 203.078L313.846 221.539Z" fill="white"/>
<path d="M313.846 184.616L332.308 184.616L332.308 166.155L313.846 166.155L313.846 184.616Z" fill="#E1F5FF"/>
<path d="M276.923 184.616L295.384 184.616L295.384 166.155L276.923 166.155L276.923 184.616Z" fill="white"/>
<path d="M295.384 184.616L313.846 184.616L313.846 166.155L295.384 166.155L295.384 184.616Z" fill="white"/>
<path d="M240 184.616L258.461 184.616L258.461 166.155L240 166.155L240 184.616Z" fill="white"/>
<path d="M203.077 184.616L221.538 184.616L221.538 166.155L203.077 166.155L203.077 184.616Z" fill="white"/>
<path d="M221.539 184.616L240 184.616L240 166.155L221.539 166.155L221.539 184.616Z" fill="white"/>
<path d="M184.615 184.616L203.077 184.616L203.077 166.154L184.615 166.154L184.615 184.616Z" fill="white"/>
<path d="M184.615 73.847L203.077 73.847L203.077 55.3858L184.615 55.3858L184.615 73.847Z" fill="#E1F5FF"/>
<path d="M92.3078 73.847L110.769 73.847L110.769 55.3858L92.3078 55.3858L92.3078 73.847Z" fill="#BFE7FF"/>
<path d="M110.769 73.847L129.23 73.847L129.23 55.3858L110.769 55.3858L110.769 73.847Z" fill="#BFE7FF"/>
<path d="M166.154 73.847L184.615 73.847L184.615 55.3858L166.154 55.3858L166.154 73.847Z" fill="#BFE7FF"/>
<path d="M129.231 73.847L147.692 73.847L147.692 55.3858L129.231 55.3858L129.231 73.847Z" fill="#BFE7FF"/>
<path d="M18.4612 73.847L36.9224 73.847L36.9224 55.3858L18.4612 55.3858L18.4612 73.847Z" fill="white"/>
<path d="M36.9232 73.847L55.3844 73.847L55.3844 55.3858L36.9232 55.3858L36.9232 73.847Z" fill="white"/>
<path d="M55.3844 73.847L73.8457 73.847L73.8457 55.3858L55.3844 55.3858L55.3844 73.847Z" fill="white"/>
<path d="M73.8466 73.847L92.3078 73.847L92.3078 55.3858L73.8466 55.3858L73.8466 73.847Z" fill="white"/>
<path d="M147.692 73.847L166.153 73.847L166.153 55.3858L147.692 55.3858L147.692 73.847Z" fill="#BFE7FF"/>
<path d="M313.846 73.847L332.308 73.847L332.308 55.3858L313.846 55.3858L313.846 73.847Z" fill="#BFE7FF"/>
<path d="M332.308 73.847L350.769 73.847L350.769 55.3858L332.308 55.3858L332.308 73.847Z" fill="#BFE7FF"/>
<path d="M350.769 73.847L369.23 73.847L369.23 55.3858L350.769 55.3858L350.769 73.847Z" fill="#BFE7FF"/>
<path d="M295.384 73.847L313.846 73.847L313.846 55.3858L295.384 55.3858L295.384 73.847Z" fill="#BFE7FF"/>
<path d="M203.077 73.847L221.538 73.847L221.538 55.3858L203.077 55.3858L203.077 73.847Z" fill="#E1F5FF"/>
<path d="M240 73.847L258.461 73.847L258.461 55.3858L240 55.3858L240 73.847Z" fill="#E1F5FF"/>
<path d="M221.539 73.847L240 73.847L240 55.3858L221.539 55.3858L221.539 73.847Z" fill="#E1F5FF"/>
<path d="M258.462 73.847L276.923 73.847L276.923 55.3858L258.462 55.3858L258.462 73.847Z" fill="#BFE7FF"/>
<path d="M276.923 73.847L295.384 73.847L295.384 55.3858L276.923 55.3858L276.923 73.847Z" fill="#BFE7FF"/>
<path d="M443.077 184.616L461.538 184.616L461.538 166.155L443.077 166.155L443.077 184.616Z" fill="#BFE7FF"/>
<path d="M369.231 73.847L387.692 73.847L387.692 55.3858L369.231 55.3858L369.231 73.847Z" fill="#BFE7FF"/>
<path d="M350.769 55.3856L369.23 55.3856L369.23 36.9243L350.769 36.9243L350.769 55.3856Z" fill="#BFE7FF"/>
<path d="M313.846 55.3856L332.308 55.3856L332.308 36.9243L313.846 36.9243L313.846 55.3856Z" fill="#BFE7FF"/>
<path d="M332.308 55.3856L350.769 55.3856L350.769 36.9243L332.308 36.9243L332.308 55.3856Z" fill="#BFE7FF"/>
<path d="M369.231 55.3856L387.692 55.3856L387.692 36.9243L369.231 36.9243L369.231 55.3856Z" fill="#BFE7FF"/>
<path d="M295.384 55.3856L313.846 55.3856L313.846 36.9243L295.384 36.9243L295.384 55.3856Z" fill="#A0D5EF"/>
<path d="M258.462 55.3856L276.923 55.3856L276.923 36.9243L258.462 36.9243L258.462 55.3856Z" fill="#BFE7FF"/>
<path d="M387.692 55.3856L406.153 55.3856L406.153 36.9243L387.692 36.9243L387.692 55.3856Z" fill="#BFE7FF"/>
<path d="M240 55.3856L258.461 55.3856L258.461 36.9243L240 36.9243L240 55.3856Z" fill="#BFE7FF"/>
<path d="M276.923 55.3856L295.384 55.3856L295.384 36.9243L276.923 36.9243L276.923 55.3856Z" fill="#BFE7FF"/>
<path d="M443.077 73.847L461.538 73.847L461.538 55.3858L443.077 55.3858L443.077 73.847Z" fill="#BFE7FF"/>
<path d="M443.077 147.694L461.538 147.694L461.538 129.232L443.077 129.232L443.077 147.694Z" fill="#BFE7FF"/>
<path d="M443.077 129.231L461.538 129.231L461.538 110.77L443.077 110.77L443.077 129.231Z" fill="#BFE7FF"/>
<path d="M443.077 166.155L461.538 166.155L461.538 147.693L443.077 147.693L443.077 166.155Z" fill="#BFE7FF"/>
<path d="M443.077 110.77L461.538 110.77L461.538 92.3078L443.077 92.3078L443.077 110.77Z" fill="#BFE7FF"/>
<path d="M221.539 55.3856L240 55.3856L240 36.9243L221.539 36.9243L221.539 55.3856Z" fill="#BFE7FF"/>
<path d="M424.616 55.3856L443.077 55.3856L443.077 36.9243L424.616 36.9243L424.616 55.3856Z" fill="#BFE7FF"/>
<path d="M443.077 92.3079L461.538 92.3079L461.538 73.8467L443.077 73.8467L443.077 92.3079Z" fill="#BFE7FF"/>
<path d="M443.077 55.3856L461.538 55.3856L461.538 36.9243L443.077 36.9243L443.077 55.3856Z" fill="#BFE7FF"/>
<path d="M406.154 55.3856L424.615 55.3856L424.615 36.9243L406.154 36.9243L406.154 55.3856Z" fill="#BFE7FF"/>
<path d="M1.33514e-05 55.3856L18.4612 55.3856L18.4612 36.9243L1.49654e-05 36.9243L1.33514e-05 55.3856Z" fill="white"/>
<path d="M18.4612 55.3856L36.9224 55.3856L36.9224 36.9243L18.4612 36.9243L18.4612 55.3856Z" fill="white"/>
<path d="M55.3844 55.3856L73.8457 55.3856L73.8457 36.9243L55.3844 36.9243L55.3844 55.3856Z" fill="white"/>
<path d="M166.154 55.3856L184.616 55.3856L184.616 36.9243L166.154 36.9243L166.154 55.3856Z" fill="#BFE7FF"/>
<path d="M147.692 55.3856L166.153 55.3856L166.153 36.9243L147.692 36.9243L147.692 55.3856Z" fill="#BFE7FF"/>
<path d="M36.9232 55.3856L55.3844 55.3856L55.3844 36.9243L36.9232 36.9243L36.9232 55.3856Z" fill="white"/>
<path d="M129.231 55.3856L147.692 55.3856L147.692 36.9243L129.231 36.9243L129.231 55.3856Z" fill="#BFE7FF"/>
<path d="M184.615 55.3856L203.077 55.3856L203.077 36.9243L184.615 36.9243L184.615 55.3856Z" fill="#BFE7FF"/>
<path d="M203.077 55.3856L221.538 55.3856L221.538 36.9243L203.077 36.9243L203.077 55.3856Z" fill="#BFE7FF"/>
<path d="M73.8466 55.3856L92.3078 55.3856L92.3078 36.9243L73.8466 36.9243L73.8466 55.3856Z" fill="white"/>
<path d="M92.3078 55.3856L110.769 55.3856L110.769 36.9243L92.3078 36.9243L92.3078 55.3856Z" fill="#BFE7FF"/>
<path d="M110.769 55.3856L129.23 55.3856L129.23 36.9243L110.769 36.9243L110.769 55.3856Z" fill="#A0D5EF"/>
<path d="M313.846 110.77L332.308 110.77L332.308 92.3078L313.846 92.3078L313.846 110.77Z" fill="#BFE7FF"/>
<path d="M406.154 129.231L424.615 129.231L424.615 110.77L406.154 110.77L406.154 129.231Z" fill="#BFE7FF"/>
<path d="M406.154 110.77L424.615 110.77L424.615 92.3078L406.154 92.3078L406.154 110.77Z" fill="#BFE7FF"/>
<path d="M406.154 92.3079L424.615 92.3079L424.615 73.8467L406.154 73.8467L406.154 92.3079Z" fill="#BFE7FF"/>
<path d="M406.154 147.694L424.615 147.694L424.615 129.232L406.154 129.232L406.154 147.694Z" fill="#BFE7FF"/>
<path d="M369.231 92.3079L387.692 92.3079L387.692 73.8467L369.231 73.8467L369.231 92.3079Z" fill="#BFE7FF"/>
<path d="M332.308 92.3079L350.769 92.3079L350.769 73.8467L332.308 73.8467L332.308 92.3079Z" fill="#BFE7FF"/>
<path d="M350.769 92.3079L369.23 92.3079L369.23 73.8467L350.769 73.8467L350.769 92.3079Z" fill="#BFE7FF"/>
<path d="M387.692 92.3079L406.153 92.3079L406.153 73.8467L387.692 73.8467L387.692 92.3079Z" fill="#BFE7FF"/>
<path d="M406.154 166.155L424.615 166.155L424.615 147.693L406.154 147.693L406.154 166.155Z" fill="#E1F5FF"/>
<path d="M406.154 203.078L424.615 203.078L424.615 184.617L406.154 184.617L406.154 203.078Z" fill="white"/>
<path d="M406.154 221.539L424.615 221.539L424.615 203.078L406.154 203.078L406.154 221.539Z" fill="white"/>
<path d="M406.154 184.616L424.615 184.616L424.615 166.155L406.154 166.155L406.154 184.616Z" fill="#E1F5FF"/>
<path d="M184.615 110.77L203.077 110.77L203.077 92.3078L184.615 92.3078L184.615 110.77Z" fill="#E1F5FF"/>
<path d="M166.154 110.77L184.615 110.77L184.615 92.3078L166.154 92.3078L166.154 110.77Z" fill="white"/>
<path d="M147.692 110.77L166.153 110.77L166.153 92.3078L147.692 92.3078L147.692 110.77Z" fill="white"/>
<path d="M258.462 110.77L276.923 110.77L276.923 92.3078L258.462 92.3078L258.462 110.77Z" fill="#E1F5FF"/>
<path d="M369.231 110.77L387.692 110.77L387.692 92.3078L369.231 92.3078L369.231 110.77Z" fill="#BFE7FF"/>
<path d="M332.308 110.77L350.769 110.77L350.769 92.3078L332.308 92.3078L332.308 110.77Z" fill="#BFE7FF"/>
<path d="M295.384 110.77L313.846 110.77L313.846 92.3078L295.384 92.3078L295.384 110.77Z" fill="#E1F5FF"/>
<path d="M350.769 110.77L369.23 110.77L369.23 92.3078L350.769 92.3078L350.769 110.77Z" fill="#BFE7FF"/>
<path d="M203.077 110.77L221.538 110.77L221.538 92.3078L203.077 92.3078L203.077 110.77Z" fill="#E1F5FF"/>
<path d="M276.923 110.77L295.384 110.77L295.384 92.3078L276.923 92.3078L276.923 110.77Z" fill="#E1F5FF"/>
<path d="M240 110.77L258.461 110.77L258.461 92.3078L240 92.3078L240 110.77Z" fill="#E1F5FF"/>
<path d="M221.539 110.77L240 110.77L240 92.3078L221.539 92.3078L221.539 110.77Z" fill="#E1F5FF"/>
<path d="M387.692 73.847L406.153 73.847L406.153 55.3858L387.692 55.3858L387.692 73.847Z" fill="#BFE7FF"/>
<path d="M313.846 92.3079L332.308 92.3079L332.308 73.8467L313.846 73.8467L313.846 92.3079Z" fill="#BFE7FF"/>
<path d="M424.616 166.155L443.077 166.155L443.077 147.693L424.616 147.693L424.616 166.155Z" fill="#BFE7FF"/>
<path d="M424.616 129.231L443.077 129.231L443.077 110.77L424.616 110.77L424.616 129.231Z" fill="#BFE7FF"/>
<path d="M424.616 147.694L443.077 147.694L443.077 129.232L424.616 129.232L424.616 147.694Z" fill="#BFE7FF"/>
<path d="M424.616 184.616L443.077 184.616L443.077 166.155L424.616 166.155L424.616 184.616Z" fill="#BFE7FF"/>
<path d="M424.616 92.3079L443.077 92.3079L443.077 73.8467L424.616 73.8467L424.616 92.3079Z" fill="#BFE7FF"/>
<path d="M424.616 73.847L443.077 73.847L443.077 55.3858L424.616 55.3858L424.616 73.847Z" fill="#BFE7FF"/>
<path d="M406.154 73.847L424.615 73.847L424.615 55.3858L406.154 55.3858L406.154 73.847Z" fill="#BFE7FF"/>
<path d="M424.616 203.078L443.077 203.078L443.077 184.617L424.616 184.617L424.616 203.078Z" fill="white"/>
<path d="M295.384 92.3079L313.846 92.3079L313.846 73.8467L295.384 73.8467L295.384 92.3079Z" fill="#BFE7FF"/>
<path d="M424.616 110.77L443.077 110.77L443.077 92.3078L424.616 92.3078L424.616 110.77Z" fill="#BFE7FF"/>
<path d="M55.3844 92.3079L73.8457 92.3079L73.8457 73.8467L55.3844 73.8467L55.3844 92.3079Z" fill="white"/>
<path d="M36.9232 92.3079L55.3844 92.3079L55.3844 73.8467L36.9232 73.8467L36.9232 92.3079Z" fill="white"/>
<path d="M73.8466 92.3079L92.3078 92.3079L92.3078 73.8467L73.8466 73.8467L73.8466 92.3079Z" fill="white"/>
<path d="M92.3078 92.3079L110.769 92.3079L110.769 73.8467L92.3078 73.8467L92.3078 92.3079Z" fill="#BFE7FF"/>
<path d="M110.769 92.3079L129.23 92.3079L129.23 73.8467L110.769 73.8467L110.769 92.3079Z" fill="#BFE7FF"/>
<path d="M221.539 92.3079L240 92.3079L240 73.8467L221.539 73.8467L221.539 92.3079Z" fill="#E1F5FF"/>
<path d="M240 92.3079L258.461 92.3079L258.461 73.8467L240 73.8467L240 92.3079Z" fill="#E1F5FF"/>
<path d="M258.462 92.3079L276.923 92.3079L276.923 73.8467L258.462 73.8467L258.462 92.3079Z" fill="#E1F5FF"/>
<path d="M276.923 92.3079L295.384 92.3079L295.384 73.8467L276.923 73.8467L276.923 92.3079Z" fill="#BFE7FF"/>
<path d="M147.692 92.3079L166.153 92.3079L166.153 73.8467L147.692 73.8467L147.692 92.3079Z" fill="#BFE7FF"/>
<path d="M166.154 92.3079L184.615 92.3079L184.615 73.8467L166.154 73.8467L166.154 92.3079Z" fill="#BFE7FF"/>
<path d="M203.077 92.3079L221.538 92.3079L221.538 73.8467L203.077 73.8467L203.077 92.3079Z" fill="#E1F5FF"/>
<path d="M184.615 92.3079L203.077 92.3079L203.077 73.8467L184.615 73.8467L184.615 92.3079Z" fill="#E1F5FF"/>
<path d="M646.154 18.4622L664.615 18.4622L664.615 0.000183109L646.154 0.000181495L646.154 18.4622Z" fill="#BFE7FF"/>
<path d="M646.154 73.847L664.615 73.847L664.615 55.3858L646.154 55.3858L646.154 73.847Z" fill="#BFE7FF"/>
<path d="M646.154 55.3856L664.615 55.3856L664.615 36.9243L646.154 36.9243L646.154 55.3856Z" fill="#BFE7FF"/>
<path d="M646.154 36.9236L664.615 36.9236L664.615 18.4625L646.154 18.4625L646.154 36.9236Z" fill="#BFE7FF"/>
<path d="M646.154 258.462L664.615 258.462L664.615 240.001L646.154 240.001L646.154 258.462Z" fill="white"/>
<path d="M646.154 203.078L664.615 203.078L664.615 184.617L646.154 184.617L646.154 203.078Z" fill="#E1F5FF"/>
<path d="M646.154 221.539L664.615 221.539L664.615 203.078L646.154 203.078L646.154 221.539Z" fill="#E1F5FF"/>
<path d="M646.154 240.001L664.615 240.001L664.615 221.54L646.154 221.54L646.154 240.001Z" fill="white"/>
<path d="M646.154 184.616L664.615 184.616L664.615 166.155L646.154 166.155L646.154 184.616Z" fill="#E1F5FF"/>
<path d="M646.154 166.155L664.615 166.155L664.615 147.693L646.154 147.693L646.154 166.155Z" fill="#E1F5FF"/>
<path d="M646.154 110.77L664.615 110.77L664.615 92.3078L646.154 92.3078L646.154 110.77Z" fill="#BFE7FF"/>
<path d="M646.154 129.231L664.615 129.231L664.615 110.77L646.154 110.77L646.154 129.231Z" fill="#BFE7FF"/>
<path d="M646.154 147.694L664.615 147.694L664.615 129.232L646.154 129.232L646.154 147.694Z" fill="#E1F5FF"/>
<path d="M646.154 92.3079L664.615 92.3079L664.615 73.8467L646.154 73.8467L646.154 92.3079Z" fill="#BFE7FF"/>
<path d="M683.078 110.77L701.539 110.77L701.539 92.3078L683.078 92.3078L683.078 110.77Z" fill="#BFE7FF"/>
<path d="M683.078 147.694L701.539 147.694L701.539 129.232L683.078 129.232L683.078 147.694Z" fill="#BFE7FF"/>
<path d="M683.078 129.231L701.539 129.231L701.539 110.77L683.078 110.77L683.078 129.231Z" fill="#BFE7FF"/>
<path d="M683.077 18.4622L701.539 18.4622L701.539 0.000183109L683.077 0.000181495L683.077 18.4622Z" fill="#BFE7FF"/>
<path d="M683.078 166.155L701.539 166.155L701.539 147.693L683.078 147.693L683.078 166.155Z" fill="#E1F5FF"/>
<path d="M683.078 184.616L701.539 184.616L701.539 166.155L683.078 166.155L683.078 184.616Z" fill="#E1F5FF"/>
<path d="M683.077 92.3079L701.539 92.3079L701.539 73.8467L683.077 73.8467L683.077 92.3079Z" fill="#BFE7FF"/>
<path d="M683.077 36.9236L701.539 36.9236L701.539 18.4625L683.077 18.4625L683.077 36.9236Z" fill="#BFE7FF"/>
<path d="M683.077 73.847L701.539 73.847L701.539 55.3858L683.077 55.3858L683.077 73.847Z" fill="#BFE7FF"/>
<path d="M683.077 55.3856L701.539 55.3856L701.539 36.9243L683.077 36.9243L683.077 55.3856Z" fill="#BFE7FF"/>
<path d="M683.078 203.078L701.539 203.078L701.539 184.617L683.078 184.617L683.078 203.078Z" fill="#E1F5FF"/>
<path d="M683.078 221.539L701.539 221.539L701.539 203.078L683.078 203.078L683.078 221.539Z" fill="#E1F5FF"/>
<path d="M683.078 240.001L701.539 240.001L701.539 221.54L683.078 221.54L683.078 240.001Z" fill="white"/>
<path d="M664.615 147.694L683.077 147.694L683.077 129.232L664.615 129.232L664.615 147.694Z" fill="#BFE7FF"/>
<path d="M664.615 110.77L683.077 110.77L683.077 92.3078L664.615 92.3078L664.615 110.77Z" fill="#BFE7FF"/>
<path d="M664.615 129.231L683.077 129.231L683.077 110.77L664.615 110.77L664.615 129.231Z" fill="#BFE7FF"/>
<path d="M664.615 73.847L683.077 73.847L683.077 55.3858L664.615 55.3858L664.615 73.847Z" fill="#BFE7FF"/>
<path d="M664.615 92.3079L683.077 92.3079L683.077 73.8467L664.615 73.8467L664.615 92.3079Z" fill="#BFE7FF"/>
<path d="M664.615 55.3856L683.077 55.3856L683.077 36.9243L664.615 36.9243L664.615 55.3856Z" fill="#A0D5EF"/>
<path d="M664.615 18.4622L683.077 18.4622L683.077 0.000183109L664.615 0.000181495L664.615 18.4622Z" fill="#BFE7FF"/>
<path d="M664.615 36.9236L683.077 36.9236L683.077 18.4625L664.615 18.4625L664.615 36.9236Z" fill="#BFE7FF"/>
<path d="M664.615 258.462L683.077 258.462L683.077 240.001L664.615 240.001L664.615 258.462Z" fill="white"/>
<path d="M664.615 184.616L683.077 184.616L683.077 166.155L664.615 166.155L664.615 184.616Z" fill="#E1F5FF"/>
<path d="M664.615 203.078L683.077 203.078L683.077 184.617L664.615 184.617L664.615 203.078Z" fill="#E1F5FF"/>
<path d="M664.615 240.001L683.077 240.001L683.077 221.54L664.615 221.54L664.615 240.001Z" fill="white"/>
<path d="M664.615 166.155L683.077 166.155L683.077 147.693L664.615 147.693L664.615 166.155Z" fill="#E1F5FF"/>
<path d="M664.615 221.539L683.077 221.539L683.077 203.078L664.615 203.078L664.615 221.539Z" fill="#E1F5FF"/>
<path d="M590.77 147.694L609.231 147.694L609.231 129.232L590.77 129.232L590.77 147.694Z" fill="#E1F5FF"/>
<path d="M590.77 129.231L609.231 129.231L609.231 110.77L590.77 110.77L590.77 129.231Z" fill="#E1F5FF"/>
<path d="M590.77 166.155L609.231 166.155L609.231 147.693L590.77 147.693L590.77 166.155Z" fill="#E1F5FF"/>
<path d="M590.77 110.77L609.231 110.77L609.231 92.3078L590.77 92.3078L590.77 110.77Z" fill="#E1F5FF"/>
<path d="M590.77 73.847L609.231 73.847L609.231 55.3858L590.77 55.3858L590.77 73.847Z" fill="#BFE7FF"/>
<path d="M590.77 36.9236L609.231 36.9236L609.231 18.4625L590.77 18.4625L590.77 36.9236Z" fill="#BFE7FF"/>
<path d="M590.77 55.3856L609.231 55.3856L609.231 36.9243L590.77 36.9243L590.77 55.3856Z" fill="#BFE7FF"/>
<path d="M590.77 18.4622L609.231 18.4622L609.231 0.000183109L590.77 0.000181495L590.77 18.4622Z" fill="#BFE7FF"/>
<path d="M590.77 92.3079L609.231 92.3079L609.231 73.8467L590.77 73.8467L590.77 92.3079Z" fill="#BFE7FF"/>
<path d="M590.77 184.616L609.231 184.616L609.231 166.155L590.77 166.155L590.77 184.616Z" fill="white"/>
<path d="M590.77 203.078L609.231 203.078L609.231 184.617L590.77 184.617L590.77 203.078Z" fill="white"/>
<path d="M590.77 221.539L609.231 221.539L609.231 203.078L590.77 203.078L590.77 221.539Z" fill="white"/>
<path d="M590.77 240.001L609.231 240.001L609.231 221.54L590.77 221.54L590.77 240.001Z" fill="white"/>
<path d="M590.77 258.462L609.231 258.462L609.231 240.001L590.77 240.001L590.77 258.462Z" fill="white"/>
<path d="M572.308 55.3856L590.769 55.3856L590.769 36.9243L572.308 36.9243L572.308 55.3856Z" fill="#BFE7FF"/>
<path d="M572.308 73.847L590.769 73.847L590.769 55.3858L572.308 55.3858L572.308 73.847Z" fill="#BFE7FF"/>
<path d="M572.308 92.3079L590.769 92.3079L590.769 73.8467L572.308 73.8467L572.308 92.3079Z" fill="#BFE7FF"/>
<path d="M572.308 110.77L590.769 110.77L590.769 92.3078L572.308 92.3078L572.308 110.77Z" fill="#E1F5FF"/>
<path d="M572.308 129.231L590.769 129.231L590.769 110.77L572.308 110.77L572.308 129.231Z" fill="#E1F5FF"/>
<path d="M572.308 18.4622L590.769 18.4622L590.769 0.000183109L572.308 0.000181495L572.308 18.4622Z" fill="#BFE7FF"/>
<path d="M572.308 147.694L590.769 147.694L590.769 129.232L572.308 129.232L572.308 147.694Z" fill="#E1F5FF"/>
<path d="M572.308 36.9236L590.769 36.9236L590.769 18.4625L572.308 18.4625L572.308 36.9236Z" fill="#BFE7FF"/>
<path d="M572.308 166.155L590.769 166.155L590.769 147.693L572.308 147.693L572.308 166.155Z" fill="white"/>
<path d="M572.308 240.001L590.769 240.001L590.769 221.54L572.308 221.54L572.308 240.001Z" fill="white"/>
<path d="M572.308 203.078L590.769 203.078L590.769 184.617L572.308 184.617L572.308 203.078Z" fill="white"/>
<path d="M572.308 184.616L590.769 184.616L590.769 166.155L572.308 166.155L572.308 184.616Z" fill="white"/>
<path d="M572.308 221.539L590.769 221.539L590.769 203.078L572.308 203.078L572.308 221.539Z" fill="white"/>
<path d="M627.692 110.77L646.153 110.77L646.153 92.3078L627.692 92.3078L627.692 110.77Z" fill="#BFE7FF"/>
<path d="M627.692 73.847L646.153 73.847L646.153 55.3858L627.692 55.3858L627.692 73.847Z" fill="#BFE7FF"/>
<path d="M627.692 92.3079L646.153 92.3079L646.153 73.8467L627.692 73.8467L627.692 92.3079Z" fill="#BFE7FF"/>
<path d="M627.692 147.694L646.153 147.694L646.153 129.232L627.692 129.232L627.692 147.694Z" fill="#E1F5FF"/>
<path d="M627.692 129.231L646.153 129.231L646.153 110.77L627.692 110.77L627.692 129.231Z" fill="#E1F5FF"/>
<path d="M627.692 18.4622L646.153 18.4622L646.153 0.000183109L627.692 0.000181495L627.692 18.4622Z" fill="#BFE7FF"/>
<path d="M627.692 166.155L646.153 166.155L646.153 147.693L627.692 147.693L627.692 166.155Z" fill="#E1F5FF"/>
<path d="M627.692 36.9236L646.153 36.9236L646.153 18.4625L627.692 18.4625L627.692 36.9236Z" fill="#BFE7FF"/>
<path d="M627.692 55.3856L646.153 55.3856L646.153 36.9243L627.692 36.9243L627.692 55.3856Z" fill="#BFE7FF"/>
<path d="M627.692 184.616L646.153 184.616L646.153 166.155L627.692 166.155L627.692 184.616Z" fill="#E1F5FF"/>
<path d="M627.692 203.078L646.153 203.078L646.153 184.617L627.692 184.617L627.692 203.078Z" fill="#E1F5FF"/>
<path d="M627.692 258.462L646.153 258.462L646.153 240.001L627.692 240.001L627.692 258.462Z" fill="white"/>
<path d="M627.692 240.001L646.153 240.001L646.153 221.54L627.692 221.54L627.692 240.001Z" fill="white"/>
<path d="M627.692 221.539L646.153 221.539L646.153 203.078L627.692 203.078L627.692 221.539Z" fill="white"/>
<path d="M609.231 18.4622L627.692 18.4622L627.692 0.000183109L609.231 0.000181495L609.231 18.4622Z" fill="#BFE7FF"/>
<path d="M609.231 203.078L627.692 203.078L627.692 184.617L609.231 184.617L609.231 203.078Z" fill="#E1F5FF"/>
<path d="M609.231 92.3079L627.692 92.3079L627.692 73.8467L609.231 73.8467L609.231 92.3079Z" fill="#BFE7FF"/>
<path d="M609.231 147.694L627.692 147.694L627.692 129.232L609.231 129.232L609.231 147.694Z" fill="#E1F5FF"/>
<path d="M609.231 166.155L627.692 166.155L627.692 147.693L609.231 147.693L609.231 166.155Z" fill="#E1F5FF"/>
<path d="M609.231 184.616L627.692 184.616L627.692 166.155L609.231 166.155L609.231 184.616Z" fill="#E1F5FF"/>
<path d="M609.231 36.9236L627.692 36.9236L627.692 18.4625L609.231 18.4625L609.231 36.9236Z" fill="#BFE7FF"/>
<path d="M609.231 129.231L627.692 129.231L627.692 110.77L609.231 110.77L609.231 129.231Z" fill="#E1F5FF"/>
<path d="M609.231 55.3856L627.692 55.3856L627.692 36.9243L609.231 36.9243L609.231 55.3856Z" fill="#BFE7FF"/>
<path d="M609.231 73.847L627.692 73.847L627.692 55.3858L609.231 55.3858L609.231 73.847Z" fill="#BFE7FF"/>
<path d="M609.231 110.77L627.692 110.77L627.692 92.3078L609.231 92.3078L609.231 110.77Z" fill="#BFE7FF"/>
<path d="M609.231 240.001L627.692 240.001L627.692 221.54L609.231 221.54L609.231 240.001Z" fill="white"/>
<path d="M609.231 258.462L627.692 258.462L627.692 240.001L609.231 240.001L609.231 258.462Z" fill="white"/>
<path d="M609.231 221.539L627.692 221.539L627.692 203.078L609.231 203.078L609.231 221.539Z" fill="white"/>
</svg>
