<svg width="510" height="180" viewBox="0 0 510 180" fill="none" xmlns="http://www.w3.org/2000/svg">
<rect y="50" width="10" height="20" fill="#0C255D"/>
<rect x="10" y="50" width="10" height="20" fill="#176FB6"/>
<rect x="20" y="40" width="20" height="10" fill="#176FB6"/>
<rect x="20" y="70" width="10" height="20" fill="#176FB6"/>
<rect x="40" y="80" width="10" height="20" fill="#176FB6"/>
<rect x="60" y="130" width="10" height="20" fill="#176FB6"/>
<rect x="70" y="150" width="10" height="20" fill="#176FB6"/>
<rect x="100" y="140" width="10" height="30" fill="#176FB6"/>
<rect x="80" y="160" width="20" height="10" fill="#176FB6"/>
<rect x="140" y="140" width="20" height="10" fill="#176FB6"/>
<rect x="120" y="130" width="60" height="10" fill="#176FB6"/>
<rect x="169" y="140" width="41" height="10" fill="#176FB6"/>
<rect x="200" y="120" width="10" height="20" fill="#176FB6"/>
<rect x="200" y="100" width="10" height="10" fill="#176FB6"/>
<rect x="160" y="120" width="20" height="10" fill="#176FB6"/>
<rect x="170" y="80" width="10" height="40" fill="#176FB6"/>
<rect x="140" y="90" width="10" height="20" fill="#176FB6"/>
<rect x="210" y="20" width="10" height="20" fill="#176FB6"/>
<rect x="210" y="70" width="10" height="20" fill="#176FB6"/>
<rect x="210" y="70" width="10" height="20" fill="#176FB6"/>
<rect x="230" y="40" width="10" height="60" fill="#176FB6"/>
<rect x="220" y="60" width="10" height="10" fill="#176FB6"/>
<rect x="220" y="30" width="10" height="10" fill="#176FB6"/>
<rect x="260" y="10" width="10" height="10" fill="#176FB6"/>
<rect x="290" y="10" width="10" height="10" fill="#176FB6"/>
<rect x="260" y="30" width="30" height="10" fill="#176FB6"/>
<rect x="270" y="20" width="30" height="10" fill="#176FB6"/>
<rect x="270" width="30" height="10" fill="#176FB6"/>
<rect x="220" y="80" width="10" height="10" fill="#176FB6"/>
<rect x="210" y="109" width="10" height="11" fill="#176FB6"/>
<rect x="220" y="110" width="10" height="10" fill="#176FB6"/>
<rect x="250" y="60" width="10" height="10" fill="#176FB6"/>
<rect x="240" y="40" width="20" height="10" fill="#176FB6"/>
<rect x="250" y="20" width="10" height="20" fill="#176FB6"/>
<rect x="260" y="50" width="10" height="10" fill="#176FB6"/>
<rect x="270" y="60" width="10" height="10" fill="#176FB6"/>
<rect x="290" y="40" width="10" height="10" fill="#176FB6"/>
<rect x="280" y="70" width="10" height="10" fill="#176FB6"/>
<rect x="310" y="80" width="10" height="10" fill="#176FB6"/>
<rect x="300" y="70" width="10" height="50" fill="#176FB6"/>
<rect x="310" y="80" width="10" height="10" fill="#176FB6"/>
<rect x="350" y="90" width="10" height="20" fill="#176FB6"/>
<rect x="340" y="110" width="20" height="10" fill="#176FB6"/>
<rect x="360" y="130" width="20" height="10" fill="#176FB6"/>
<rect x="380" y="120" width="10" height="10" fill="#176FB6"/>
<rect x="410" y="120" width="10" height="10" fill="#176FB6"/>
<rect x="450" y="150" width="10" height="10" fill="#176FB6"/>
<rect x="430" y="80" width="10" height="30" fill="#176FB6"/>
<rect x="440" y="120" width="10" height="40" fill="#176FB6"/>
<rect x="480" y="100" width="10" height="30" fill="#176FB6"/>
<rect x="470" y="130" width="10" height="30" fill="#176FB6"/>
<rect x="490" y="70" width="10" height="30" fill="#176FB6"/>
<rect x="430" y="30" width="10" height="20" fill="#176FB6"/>
<rect x="440" y="40" width="10" height="20" fill="#176FB6"/>
<rect x="420" y="110" width="10" height="10" fill="#176FB6"/>
<rect x="450" y="110" width="10" height="10" fill="#176FB6"/>
<rect x="450" y="50" width="10" height="10" fill="#176FB6"/>
<rect x="500" y="60" width="10" height="10" fill="#176FB6"/>
<rect x="470" y="50" width="40" height="10" fill="#176FB6"/>
<rect x="460" y="80" width="10" height="10" fill="#176FB6"/>
<rect x="460" y="60" width="20" height="20" fill="#176FB6"/>
<rect x="420" y="70" width="10" height="10" fill="#176FB6"/>
<rect x="420" y="30" width="10" height="30" fill="#176FB6"/>
<rect x="380" y="70" width="10" height="10" fill="#176FB6"/>
<rect x="400" y="90" width="10" height="10" fill="#176FB6"/>
<rect x="380" y="60" width="50" height="10" fill="#176FB6"/>
<rect x="390" y="80" width="10" height="20" fill="#176FB6"/>
<rect x="390" y="130" width="20" height="10" fill="#176FB6"/>
<rect x="420" y="140" width="20" height="10" fill="#176FB6"/>
<rect x="460" y="160" width="20" height="10" fill="#176FB6"/>
<rect x="310" y="120" width="20" height="10" fill="#176FB6"/>
<rect x="330" y="80" width="10" height="50" fill="#176FB6"/>
<rect x="310" y="30" width="40" height="10" fill="#176FB6"/>
<rect x="350" y="20" width="30" height="10" fill="#176FB6"/>
<rect x="340" y="40" width="10" height="30" fill="#176FB6"/>
<rect x="370" y="30" width="10" height="30" fill="#176FB6"/>
<rect x="370" y="80" width="10" height="40" fill="#176FB6"/>
<rect x="300" y="40" width="10" height="20" fill="#176FB6"/>
<rect x="290" y="60" width="10" height="20" fill="#176FB6"/>
<rect x="250" y="130" width="20" height="10" fill="#176FB6"/>
<rect x="230" y="120" width="20" height="10" fill="#176FB6"/>
<rect x="260" y="110" width="20" height="10" fill="#176FB6"/>
<rect x="280" y="100" width="20" height="10" fill="#176FB6"/>
<rect x="240" y="100" width="20" height="10" fill="#176FB6"/>
<rect x="250" y="70" width="20" height="10" fill="#176FB6"/>
<rect x="260" y="120" width="10" height="10" fill="#176FB6"/>
<rect x="150" y="100" width="10" height="10" fill="#176FB6"/>
<rect x="90" y="110" width="10" height="20" fill="#176FB6"/>
<path d="M100 100H110V110H100V100Z" fill="#176FB6"/>
<rect x="80" y="60" width="10" height="30" fill="#176FB6"/>
<rect x="40" y="40" width="40" height="40" fill="#F8C633"/>
<rect x="20" y="50" width="20" height="20" fill="#F8C633"/>
<rect x="80" y="40" width="20" height="20" fill="#F8C633"/>
<rect x="100" y="50" width="20" height="30" fill="#F8C633"/>
<rect x="90" y="80" width="20" height="20" fill="#F8C633"/>
<rect x="80" y="90" width="10" height="10" fill="#F8C633"/>
<rect x="90" y="100" width="10" height="10" fill="#F8C633"/>
<rect x="50" y="80" width="30" height="20" fill="#F8C633"/>
<rect x="60" y="100" width="30" height="30" fill="#F8C633"/>
<rect x="120" y="90" width="20" height="40" fill="#F8C633"/>
<rect x="140" y="110" width="20" height="20" fill="#F8C633"/>
<rect x="160" y="80" width="10" height="40" fill="#F8C633"/>
<rect x="210" y="40" width="10" height="30" fill="#F8C633"/>
<rect x="220" y="40" width="10" height="20" fill="#F8C633"/>
<rect x="210" y="90" width="10" height="20" fill="#F8C633"/>
<rect x="220" y="90" width="10" height="20" fill="#F8C633"/>
<rect x="230" y="100" width="10" height="20" fill="#F8C633"/>
<rect x="250" y="110" width="10" height="20" fill="#F8C633"/>
<rect x="240" y="80" width="60" height="20" fill="#F8C633"/>
<rect x="240" y="110" width="10" height="10" fill="#F8C633"/>
<rect x="240" y="50" width="10" height="30" fill="#F8C633"/>
<rect x="250" y="50" width="10" height="10" fill="#F8C633"/>
<rect x="280" y="60" width="10" height="10" fill="#F8C633"/>
<rect x="280" y="60" width="10" height="10" fill="#F8C633"/>
<rect x="260" y="20" width="10" height="10" fill="#F8C633"/>
<rect x="270" y="10" width="10" height="10" fill="#F8C633"/>
<rect x="280" y="10" width="10" height="10" fill="#F8C633"/>
<rect x="290" y="50" width="10" height="10" fill="#F8C633"/>
<rect x="340" y="70" width="10" height="40" fill="#F8C633"/>
<rect x="370" y="60" width="10" height="20" fill="#F8C633"/>
<rect x="370" y="60" width="10" height="20" fill="#F8C633"/>
<rect x="390" y="70" width="30" height="10" fill="#F8C633"/>
<rect x="430" y="110" width="20" height="10" fill="#F8C633"/>
<rect x="480" y="60" width="20" height="10" fill="#F8C633"/>
<rect x="480" y="70" width="10" height="30" fill="#F8C633"/>
<rect x="470" y="80" width="10" height="10" fill="#F8C633"/>
<rect x="410" y="110" width="10" height="10" fill="#F8C633"/>
<rect x="420" y="120" width="20" height="20" fill="#F8C633"/>
<rect x="420" y="120" width="20" height="20" fill="#F8C633"/>
<rect x="440" y="60" width="20" height="50" fill="#F8C633"/>
<rect x="430" y="50" width="10" height="30" fill="#F8C633"/>
<rect x="460" y="150" width="10" height="10" fill="#F8C633"/>
<rect x="470" y="120" width="10" height="10" fill="#F8C633"/>
<rect x="420" y="120" width="20" height="20" fill="#F8C633"/>
<rect x="450" y="120" width="20" height="30" fill="#F8C633"/>
<rect x="460" y="90" width="20" height="30" fill="#F8C633"/>
<rect x="360" y="89" width="10" height="41" fill="#F8C633"/>
<rect x="380" y="80" width="10" height="41" fill="#F8C633"/>
<rect x="390" y="100" width="20" height="30" fill="#F8C633"/>
<rect x="410" y="80" width="20" height="30" fill="#F8C633"/>
<rect x="370" y="120" width="10" height="10" fill="#F8C633"/>
<rect x="320" y="80" width="10" height="40" fill="#F8C633"/>
<rect x="310" y="90" width="10" height="30" fill="#F8C633"/>
<rect x="260" y="40" width="10" height="10" fill="#F8C633"/>
<rect x="260" y="100" width="20" height="10" fill="#F8C633"/>
<rect x="270" y="40" width="20" height="20" fill="#F8C633"/>
<rect x="350" y="30" width="20" height="60" fill="#F8C633"/>
<rect x="350" y="30" width="20" height="60" fill="#F8C633"/>
<rect x="310" y="40" width="30" height="40" fill="#F8C633"/>
<rect x="270" y="70" width="10" height="10" fill="#F8C633"/>
<rect x="180" y="60" width="20" height="80" fill="#F8C633"/>
<rect x="200" y="50" width="10" height="50" fill="#F8C633"/>
<rect x="170" y="40" width="20" height="20" fill="#F8C633"/>
<rect x="170" y="60" width="10" height="20" fill="#F8C633"/>
<rect x="160" y="40" width="10" height="10" fill="#F8C633"/>
<rect x="130" y="80" width="30" height="10" fill="#F8C633"/>
<rect x="70" y="130" width="30" height="20" fill="#F8C633"/>
<rect x="80" y="150" width="20" height="10" fill="#F8C633"/>
<rect x="30" y="70" width="10" height="10" fill="#F8C633"/>
<rect x="90" y="60" width="10" height="20" fill="#176FB6"/>
<rect x="100" y="40" width="20" height="10" fill="#176FB6"/>
<rect x="120" y="50" width="10" height="40" fill="#176FB6"/>
<rect x="110" y="80" width="10" height="50" fill="#176FB6"/>
<rect x="40" y="30" width="70" height="10" fill="#176FB6"/>
<rect x="50" y="100" width="10" height="30" fill="#176FB6"/>
<rect x="30" y="80" width="10" height="10" fill="#176FB6"/>
<rect x="10" y="70" width="10" height="20" fill="#0C255D"/>
<rect x="20" y="90" width="20" height="10" fill="#0C255D"/>
<rect x="30" y="100" width="20" height="10" fill="#0C255D"/>
<rect x="50" y="150" width="20" height="10" fill="#0C255D"/>
<rect x="70" y="170" width="10" height="10" fill="#0C255D"/>
<rect x="160" y="140" width="10" height="10" fill="#0C255D"/>
<rect x="200" y="110" width="10" height="10" fill="#0C255D"/>
<rect x="120" y="140" width="20" height="10" fill="#0C255D"/>
<rect x="40" y="110" width="10" height="20" fill="#0C255D"/>
<rect x="50" y="130" width="10" height="20" fill="#0C255D"/>
<path d="M60 160H70V180H60V160Z" fill="#0C255D"/>
<path d="M100 110H110V140H100V110Z" fill="#0C255D"/>
<path d="M110 130H120V150H110V130Z" fill="#0C255D"/>
<rect x="150" y="90" width="10" height="10" fill="white"/>
<rect x="220" y="70" width="10" height="10" fill="white"/>
<rect x="260" y="60" width="10" height="10" fill="white"/>
<rect x="400" y="80" width="10" height="10" fill="white"/>
<rect x="130" y="70" width="40" height="10" fill="#176FB6"/>
<rect x="140" y="50" width="10" height="20" fill="#0C255D"/>
<rect x="160" y="50" width="10" height="20" fill="#176FB6"/>
<rect x="150" y="30" width="10" height="30" fill="#176FB6"/>
<rect x="200" y="20" width="10" height="30" fill="#176FB6"/>
<rect x="190" y="30" width="10" height="30" fill="#176FB6"/>
<rect x="180" y="20" width="10" height="20" fill="#176FB6"/>
<rect x="160" y="30" width="20" height="10" fill="#176FB6"/>
<rect x="150" y="60" width="10" height="10" fill="#0C255D"/>
<rect x="240" y="30" width="10" height="10" fill="#0C255D"/>
<rect x="410" y="30" width="10" height="30" fill="#0C255D"/>
<rect x="300" y="60" width="10" height="10" fill="#0C255D"/>
<rect x="290" y="110" width="10" height="10" fill="#0C255D"/>
<rect x="350" y="120" width="10" height="20" fill="#0C255D"/>
<rect x="410" y="130" width="10" height="20" fill="#0C255D"/>
<rect x="290" y="120" width="20" height="10" fill="#0C255D"/>
<rect x="210" y="120" width="10" height="10" fill="#0C255D"/>
<rect x="230" y="130" width="20" height="10" fill="#0C255D"/>
<rect x="250" y="140" width="20" height="10" fill="#0C255D"/>
<rect x="220" y="120" width="10" height="10" fill="#0C255D"/>
<rect x="190" y="20" width="10" height="10" fill="#0C255D"/>
</svg>
